<mxfile host="65bd71144e">
    <diagram id="obvXgnCeHfj7-qXvD85L" name="Page-1">
        <mxGraphModel dx="1958" dy="967" grid="1" gridSize="10" guides="1" tooltips="1" connect="1" arrows="1" fold="1" page="1" pageScale="1" pageWidth="2000" pageHeight="2000" math="0" shadow="0">
            <root>
                <mxCell id="0"/>
                <mxCell id="1" parent="0"/>
                <mxCell id="67" value="" style="verticalLabelPosition=bottom;verticalAlign=top;html=1;shadow=0;dashed=0;strokeWidth=1;shape=mxgraph.android.phone2;strokeColor=#c0c0c0;fillColor=#1A1A1A;" vertex="1" parent="1">
                    <mxGeometry x="119" y="88" width="200" height="390" as="geometry"/>
                </mxCell>
                <mxCell id="81" value="&lt;font style=&quot;font-size: 36px&quot;&gt;BaoBae mobile app wireframes&lt;/font&gt;" style="text;html=1;resizable=0;autosize=1;align=center;verticalAlign=middle;points=[];fillColor=none;strokeColor=none;rounded=0;" vertex="1" parent="1">
                    <mxGeometry x="30" y="30" width="520" height="30" as="geometry"/>
                </mxCell>
                <mxCell id="82" value="&lt;font style=&quot;font-size: 24px&quot;&gt;Opening app page&lt;/font&gt;" style="text;html=1;resizable=0;autosize=1;align=center;verticalAlign=middle;points=[];fillColor=none;strokeColor=none;rounded=0;" vertex="1" parent="1">
                    <mxGeometry x="114" y="500" width="210" height="20" as="geometry"/>
                </mxCell>
                <mxCell id="84" value="&lt;font style=&quot;font-size: 24px&quot;&gt;Sign up page&lt;/font&gt;" style="text;html=1;resizable=0;autosize=1;align=center;verticalAlign=middle;points=[];fillColor=none;strokeColor=none;rounded=0;" vertex="1" parent="1">
                    <mxGeometry x="459" y="500" width="160" height="20" as="geometry"/>
                </mxCell>
                <mxCell id="85" value="" style="verticalLabelPosition=bottom;verticalAlign=top;html=1;shadow=0;dashed=0;strokeWidth=2;shape=mxgraph.android.navigation_bar_1;fillColor=#1A1A1A;strokeColor=#999999;" vertex="1" parent="1">
                    <mxGeometry x="127.5" y="420" width="185" height="30" as="geometry"/>
                </mxCell>
                <mxCell id="87" value="" style="verticalLabelPosition=bottom;verticalAlign=top;html=1;shadow=0;dashed=0;strokeWidth=1;shape=mxgraph.android.phone2;strokeColor=#c0c0c0;fillColor=#1A1A1A;" vertex="1" parent="1">
                    <mxGeometry x="430" y="88" width="200" height="390" as="geometry"/>
                </mxCell>
                <mxCell id="88" value="" style="verticalLabelPosition=bottom;verticalAlign=top;html=1;shadow=0;dashed=0;strokeWidth=2;shape=mxgraph.android.navigation_bar_1;fillColor=#1A1A1A;strokeColor=#999999;" vertex="1" parent="1">
                    <mxGeometry x="438.5" y="420" width="185" height="30" as="geometry"/>
                </mxCell>
                <mxCell id="90" value="" style="strokeWidth=1;shadow=0;dashed=0;align=center;html=1;shape=mxgraph.mockup.forms.rrect;rSize=0;strokeColor=#999999;fillColor=#ffffff;" vertex="1" parent="1">
                    <mxGeometry x="439" y="128" width="181" height="292" as="geometry"/>
                </mxCell>
                <mxCell id="91" value="New Account" style="strokeWidth=1;shadow=0;dashed=0;align=center;html=1;shape=mxgraph.mockup.forms.anchor;fontSize=12;fontColor=#666666;align=left;resizeWidth=1;spacingLeft=0;" vertex="1" parent="90">
                    <mxGeometry width="90.5" height="20" relative="1" as="geometry">
                        <mxPoint x="10" y="10" as="offset"/>
                    </mxGeometry>
                </mxCell>
                <mxCell id="92" value="" style="shape=line;strokeColor=#ddeeff;strokeWidth=2;html=1;resizeWidth=1;" vertex="1" parent="90">
                    <mxGeometry width="162.9" height="10" relative="1" as="geometry">
                        <mxPoint x="10" y="30" as="offset"/>
                    </mxGeometry>
                </mxCell>
                <mxCell id="93" value="Email:" style="strokeWidth=1;shadow=0;dashed=0;align=center;html=1;shape=mxgraph.mockup.forms.anchor;fontSize=12;fontColor=#666666;align=left;resizeWidth=1;spacingLeft=0;" vertex="1" parent="90">
                    <mxGeometry width="90.5" height="20" relative="1" as="geometry">
                        <mxPoint x="10" y="40" as="offset"/>
                    </mxGeometry>
                </mxCell>
                <mxCell id="94" value="iLoveLoot@baobae.com" style="strokeWidth=1;shadow=0;dashed=0;align=center;html=1;shape=mxgraph.mockup.forms.rrect;rSize=0;strokeColor=#999999;fontColor=#666666;align=left;spacingLeft=5;resizeWidth=1;" vertex="1" parent="90">
                    <mxGeometry width="150.83333333333334" height="25" relative="1" as="geometry">
                        <mxPoint x="10" y="60" as="offset"/>
                    </mxGeometry>
                </mxCell>
                <mxCell id="95" value="Password:" style="strokeWidth=1;shadow=0;dashed=0;align=center;html=1;shape=mxgraph.mockup.forms.anchor;fontSize=12;fontColor=#666666;align=left;resizeWidth=1;spacingLeft=0;" vertex="1" parent="90">
                    <mxGeometry width="90.5" height="20" relative="1" as="geometry">
                        <mxPoint x="10" y="95" as="offset"/>
                    </mxGeometry>
                </mxCell>
                <mxCell id="96" value="********" style="strokeWidth=1;shadow=0;dashed=0;align=center;html=1;shape=mxgraph.mockup.forms.rrect;rSize=0;strokeColor=#999999;fontColor=#666666;align=left;spacingLeft=5;resizeWidth=1;" vertex="1" parent="90">
                    <mxGeometry width="135.75" height="25" relative="1" as="geometry">
                        <mxPoint x="10" y="115" as="offset"/>
                    </mxGeometry>
                </mxCell>
                <mxCell id="99" value="" style="shape=line;strokeColor=#ddeeff;strokeWidth=2;html=1;resizeWidth=1;" vertex="1" parent="90">
                    <mxGeometry y="1" width="162.9" height="10" relative="1" as="geometry">
                        <mxPoint x="10" y="-90" as="offset"/>
                    </mxGeometry>
                </mxCell>
                <mxCell id="101" value="SIGN UP" style="strokeWidth=1;shadow=0;dashed=0;align=center;html=1;shape=mxgraph.mockup.forms.rrect;rSize=5;strokeColor=none;fontColor=#ffffff;fillColor=#66bbff;fontSize=16;fontStyle=1;" vertex="1" parent="90">
                    <mxGeometry y="1" width="80" height="30" relative="1" as="geometry">
                        <mxPoint x="20" y="-50" as="offset"/>
                    </mxGeometry>
                </mxCell>
                <mxCell id="103" value="Confirm Password:" style="strokeWidth=1;shadow=0;dashed=0;align=center;html=1;shape=mxgraph.mockup.forms.anchor;fontSize=12;fontColor=#666666;align=left;resizeWidth=1;spacingLeft=0;" vertex="1" parent="1">
                    <mxGeometry x="449" y="283" width="90.5" height="20" as="geometry"/>
                </mxCell>
                <mxCell id="104" value="********" style="strokeWidth=1;shadow=0;dashed=0;align=center;html=1;shape=mxgraph.mockup.forms.rrect;rSize=0;strokeColor=#999999;fontColor=#666666;align=left;spacingLeft=5;resizeWidth=1;" vertex="1" parent="1">
                    <mxGeometry x="449" y="303" width="135.75" height="25" as="geometry"/>
                </mxCell>
                <mxCell id="106" value="" style="verticalLabelPosition=bottom;verticalAlign=top;html=1;shadow=0;dashed=0;strokeWidth=1;shape=mxgraph.android.phone2;strokeColor=#c0c0c0;fillColor=#1A1A1A;" vertex="1" parent="1">
                    <mxGeometry x="729" y="88" width="200" height="390" as="geometry"/>
                </mxCell>
                <mxCell id="107" value="" style="strokeWidth=1;shadow=0;dashed=0;align=center;html=1;shape=mxgraph.mockup.forms.rrect;rSize=0;strokeColor=#999999;fillColor=#ffffff;" vertex="1" parent="1">
                    <mxGeometry x="739" y="128" width="180" height="310" as="geometry"/>
                </mxCell>
                <mxCell id="108" value="Sign In" style="strokeWidth=1;shadow=0;dashed=0;align=center;html=1;shape=mxgraph.mockup.forms.anchor;fontSize=12;fontColor=#666666;align=left;resizeWidth=1;spacingLeft=0;" vertex="1" parent="107">
                    <mxGeometry width="90" height="20" relative="1" as="geometry">
                        <mxPoint x="10" y="10" as="offset"/>
                    </mxGeometry>
                </mxCell>
                <mxCell id="109" value="" style="shape=line;strokeColor=#ddeeff;strokeWidth=2;html=1;resizeWidth=1;" vertex="1" parent="107">
                    <mxGeometry width="162" height="10" relative="1" as="geometry">
                        <mxPoint x="10" y="30" as="offset"/>
                    </mxGeometry>
                </mxCell>
                <mxCell id="110" value="Email:" style="strokeWidth=1;shadow=0;dashed=0;align=center;html=1;shape=mxgraph.mockup.forms.anchor;fontSize=12;fontColor=#666666;align=left;resizeWidth=1;spacingLeft=0;" vertex="1" parent="107">
                    <mxGeometry width="90" height="20" relative="1" as="geometry">
                        <mxPoint x="10" y="40" as="offset"/>
                    </mxGeometry>
                </mxCell>
                <mxCell id="111" value="iLoveLoot@baobae.com" style="strokeWidth=1;shadow=0;dashed=0;align=center;html=1;shape=mxgraph.mockup.forms.rrect;rSize=0;strokeColor=#999999;fontColor=#666666;align=left;spacingLeft=5;resizeWidth=1;" vertex="1" parent="107">
                    <mxGeometry width="150" height="25" relative="1" as="geometry">
                        <mxPoint x="10" y="60" as="offset"/>
                    </mxGeometry>
                </mxCell>
                <mxCell id="112" value="Password:" style="strokeWidth=1;shadow=0;dashed=0;align=center;html=1;shape=mxgraph.mockup.forms.anchor;fontSize=12;fontColor=#666666;align=left;resizeWidth=1;spacingLeft=0;" vertex="1" parent="107">
                    <mxGeometry width="90" height="20" relative="1" as="geometry">
                        <mxPoint x="10" y="95" as="offset"/>
                    </mxGeometry>
                </mxCell>
                <mxCell id="113" value="********" style="strokeWidth=1;shadow=0;dashed=0;align=center;html=1;shape=mxgraph.mockup.forms.rrect;rSize=0;strokeColor=#999999;fontColor=#666666;align=left;spacingLeft=5;resizeWidth=1;" vertex="1" parent="107">
                    <mxGeometry width="135" height="25" relative="1" as="geometry">
                        <mxPoint x="10" y="115" as="offset"/>
                    </mxGeometry>
                </mxCell>
                <mxCell id="114" value="LOGIN" style="strokeWidth=1;shadow=0;dashed=0;align=center;html=1;shape=mxgraph.mockup.forms.rrect;rSize=5;strokeColor=none;fontColor=#ffffff;fillColor=#66bbff;fontSize=16;fontStyle=1;" vertex="1" parent="107">
                    <mxGeometry y="1" width="80" height="30" relative="1" as="geometry">
                        <mxPoint x="20" y="-150" as="offset"/>
                    </mxGeometry>
                </mxCell>
                <mxCell id="115" value="Forgot Password?" style="strokeWidth=1;shadow=0;dashed=0;align=center;html=1;shape=mxgraph.mockup.forms.anchor;fontSize=12;fontColor=#9999ff;align=left;spacingLeft=0;fontStyle=4;resizeWidth=1;" vertex="1" parent="107">
                    <mxGeometry y="1" width="135" height="20" relative="1" as="geometry">
                        <mxPoint x="10" y="-110" as="offset"/>
                    </mxGeometry>
                </mxCell>
                <mxCell id="116" value="" style="shape=line;strokeColor=#ddeeff;strokeWidth=2;html=1;resizeWidth=1;" vertex="1" parent="107">
                    <mxGeometry y="1" width="162" height="10" relative="1" as="geometry">
                        <mxPoint x="10" y="-90" as="offset"/>
                    </mxGeometry>
                </mxCell>
                <mxCell id="119" value="&lt;font style=&quot;font-size: 24px&quot;&gt;Login page&lt;/font&gt;" style="text;html=1;resizable=0;autosize=1;align=center;verticalAlign=middle;points=[];fillColor=none;strokeColor=none;rounded=0;" vertex="1" parent="1">
                    <mxGeometry x="764" y="500" width="130" height="20" as="geometry"/>
                </mxCell>
                <mxCell id="120" value="" style="verticalLabelPosition=bottom;verticalAlign=top;html=1;shadow=0;dashed=0;strokeWidth=2;shape=mxgraph.android.navigation_bar_1;fillColor=#1A1A1A;strokeColor=#999999;" vertex="1" parent="1">
                    <mxGeometry x="737.5" y="420" width="185" height="30" as="geometry"/>
                </mxCell>
                <mxCell id="122" value="" style="verticalLabelPosition=bottom;verticalAlign=top;html=1;shadow=0;dashed=0;strokeWidth=1;strokeColor=none;shape=rect;fillColor=#ffbb33;" vertex="1" parent="1">
                    <mxGeometry x="128.5" y="121" width="182.5" height="300" as="geometry"/>
                </mxCell>
                <mxCell id="123" value="SIGN UP" style="strokeWidth=1;shadow=0;dashed=0;align=center;html=1;shape=mxgraph.mockup.forms.rrect;rSize=5;strokeColor=none;fontColor=#ffffff;fillColor=#66bbff;fontSize=16;fontStyle=1;" vertex="1" parent="1">
                    <mxGeometry x="179" y="330" width="80" height="30" as="geometry"/>
                </mxCell>
                <mxCell id="124" value="LOGIN" style="strokeWidth=1;shadow=0;dashed=0;align=center;html=1;shape=mxgraph.mockup.forms.rrect;rSize=5;strokeColor=none;fontColor=#ffffff;fillColor=#66bbff;fontSize=16;fontStyle=1;" vertex="1" parent="1">
                    <mxGeometry x="179" y="370" width="80" height="30" as="geometry"/>
                </mxCell>
                <mxCell id="125" value="&lt;font style=&quot;font-size: 36px&quot;&gt;BaoBae&lt;/font&gt;" style="text;html=1;resizable=0;autosize=1;align=center;verticalAlign=middle;points=[];fillColor=none;strokeColor=none;rounded=0;" vertex="1" parent="1">
                    <mxGeometry x="150" y="160" width="140" height="30" as="geometry"/>
                </mxCell>
                <mxCell id="140" value="" style="verticalLabelPosition=bottom;verticalAlign=top;html=1;shadow=0;dashed=0;strokeWidth=1;shape=mxgraph.android.phone2;strokeColor=#c0c0c0;fillColor=#1A1A1A;" vertex="1" parent="1">
                    <mxGeometry x="1009" y="88" width="200" height="390" as="geometry"/>
                </mxCell>
                <mxCell id="141" value="&lt;font style=&quot;font-size: 24px&quot;&gt;Browsing items page&lt;/font&gt;" style="text;html=1;resizable=0;autosize=1;align=center;verticalAlign=middle;points=[];fillColor=none;strokeColor=none;rounded=0;" vertex="1" parent="1">
                    <mxGeometry x="989" y="500" width="240" height="20" as="geometry"/>
                </mxCell>
                <mxCell id="142" value="" style="verticalLabelPosition=bottom;verticalAlign=top;html=1;shadow=0;dashed=0;strokeWidth=2;shape=mxgraph.android.navigation_bar_1;fillColor=#1A1A1A;strokeColor=#999999;" vertex="1" parent="1">
                    <mxGeometry x="1017.5" y="420" width="185" height="30" as="geometry"/>
                </mxCell>
                <mxCell id="143" value="" style="verticalLabelPosition=bottom;verticalAlign=top;html=1;shadow=0;dashed=0;strokeWidth=1;strokeColor=none;shape=rect;fillColor=#ffbb33;" vertex="1" parent="1">
                    <mxGeometry x="1018.5" y="121" width="182.5" height="300" as="geometry"/>
                </mxCell>
                <mxCell id="144" value="" style="strokeWidth=1;shadow=0;dashed=0;align=center;html=1;shape=mxgraph.mockup.forms.rrect;rSize=5;strokeColor=none;fontColor=#ffffff;fillColor=#66bbff;fontSize=16;fontStyle=1;" vertex="1" parent="1">
                    <mxGeometry x="1157" y="152" width="26" height="32" as="geometry"/>
                </mxCell>
                <mxCell id="145" value="" style="strokeWidth=1;shadow=0;dashed=0;align=center;html=1;shape=mxgraph.mockup.forms.rrect;rSize=5;strokeColor=none;fontColor=#ffffff;fillColor=#66bbff;fontSize=16;fontStyle=1;" vertex="1" parent="1">
                    <mxGeometry x="1099" y="391" width="31" height="31" as="geometry"/>
                </mxCell>
                <mxCell id="146" value="&lt;font style=&quot;font-size: 11px&quot;&gt;What are you looking for today?&lt;/font&gt;" style="text;html=1;resizable=0;autosize=1;align=center;verticalAlign=middle;points=[];fillColor=none;strokeColor=none;rounded=0;" vertex="1" parent="1">
                    <mxGeometry x="1025" y="128" width="170" height="20" as="geometry"/>
                </mxCell>
                <mxCell id="147" value="" style="verticalLabelPosition=bottom;shadow=0;dashed=0;align=center;html=1;verticalAlign=top;strokeWidth=1;shape=mxgraph.mockup.misc.shoppingCart;strokeColor=#999999;fillColor=#B0B0B0;" vertex="1" parent="1">
                    <mxGeometry x="1105.5" y="393" width="20" height="22" as="geometry"/>
                </mxCell>
                <mxCell id="148" value="" style="html=1;verticalLabelPosition=bottom;align=center;labelBackgroundColor=#ffffff;verticalAlign=top;strokeWidth=2;strokeColor=#0080F0;shadow=0;dashed=0;shape=mxgraph.ios7.icons.looking_glass;fillColor=#B0B0B0;" vertex="1" parent="1">
                    <mxGeometry x="1162" y="157" width="20" height="22" as="geometry"/>
                </mxCell>
                <mxCell id="149" value="Search..." style="html=1;shadow=0;dashed=0;shape=mxgraph.bootstrap.rrect;rSize=5;strokeColor=#CED4DA;html=1;whiteSpace=wrap;fillColor=#FFFFFF;fontColor=#7D868C;align=left;spacing=15;fontSize=14;" vertex="1" parent="1">
                    <mxGeometry x="1023" y="154" width="130" height="30" as="geometry"/>
                </mxCell>
                <mxCell id="154" value="" style="verticalLabelPosition=bottom;verticalAlign=top;html=1;shadow=0;dashed=0;strokeWidth=1;strokeColor=none;shape=rect;fillColor=#FFFFFF;" vertex="1" parent="1">
                    <mxGeometry x="1023" y="191" width="80.5" height="80" as="geometry"/>
                </mxCell>
                <mxCell id="155" value="&lt;font style=&quot;font-size: 11px&quot;&gt;Portable monitor&lt;/font&gt;" style="text;html=1;resizable=0;autosize=1;align=center;verticalAlign=middle;points=[];fillColor=none;strokeColor=none;rounded=0;" vertex="1" parent="1">
                    <mxGeometry x="1009" y="271" width="100" height="20" as="geometry"/>
                </mxCell>
                <mxCell id="156" value="" style="verticalLabelPosition=bottom;verticalAlign=top;html=1;shadow=0;dashed=0;strokeWidth=1;strokeColor=none;shape=rect;fillColor=#FFFFFF;" vertex="1" parent="1">
                    <mxGeometry x="1116.5" y="191" width="80.5" height="80" as="geometry"/>
                </mxCell>
                <mxCell id="157" value="&lt;span style=&quot;font-size: 11px&quot;&gt;Track pants&lt;/span&gt;" style="text;html=1;resizable=0;autosize=1;align=center;verticalAlign=middle;points=[];fillColor=none;strokeColor=none;rounded=0;" vertex="1" parent="1">
                    <mxGeometry x="1117.5" y="271" width="70" height="20" as="geometry"/>
                </mxCell>
                <mxCell id="158" value="" style="verticalLabelPosition=bottom;verticalAlign=top;html=1;shadow=0;dashed=0;strokeWidth=1;strokeColor=none;shape=rect;fillColor=#FFFFFF;" vertex="1" parent="1">
                    <mxGeometry x="1023" y="291" width="80.5" height="80" as="geometry"/>
                </mxCell>
                <mxCell id="159" value="&lt;font style=&quot;font-size: 11px&quot;&gt;Wireless earpiece&lt;/font&gt;" style="text;html=1;resizable=0;autosize=1;align=center;verticalAlign=middle;points=[];fillColor=none;strokeColor=none;rounded=0;" vertex="1" parent="1">
                    <mxGeometry x="1012" y="370" width="100" height="20" as="geometry"/>
                </mxCell>
                <mxCell id="160" value="" style="verticalLabelPosition=bottom;verticalAlign=top;html=1;shadow=0;dashed=0;strokeWidth=1;strokeColor=none;shape=rect;fillColor=#FFFFFF;" vertex="1" parent="1">
                    <mxGeometry x="1116.5" y="291" width="80.5" height="80" as="geometry"/>
                </mxCell>
                <mxCell id="161" value="&lt;span style=&quot;font-size: 11px&quot;&gt;Tissue&lt;/span&gt;" style="text;html=1;resizable=0;autosize=1;align=center;verticalAlign=middle;points=[];fillColor=none;strokeColor=none;rounded=0;" vertex="1" parent="1">
                    <mxGeometry x="1132.5" y="370" width="50" height="20" as="geometry"/>
                </mxCell>
                <mxCell id="162" value="" style="image;html=1;image=img/lib/clip_art/computers/Monitor_128x128.png;fillColor=#FFFFFF;" vertex="1" parent="1">
                    <mxGeometry x="1038.25" y="206" width="50" height="50" as="geometry"/>
                </mxCell>
                <mxCell id="163" value="" style="verticalLabelPosition=bottom;verticalAlign=top;html=1;shadow=0;dashed=0;strokeWidth=1;shape=mxgraph.android.phone2;strokeColor=#c0c0c0;fillColor=#1A1A1A;" vertex="1" parent="1">
                    <mxGeometry x="130" y="550" width="200" height="390" as="geometry"/>
                </mxCell>
                <mxCell id="164" value="&lt;font style=&quot;font-size: 24px&quot;&gt;Searched item page&lt;/font&gt;" style="text;html=1;resizable=0;autosize=1;align=center;verticalAlign=middle;points=[];fillColor=none;strokeColor=none;rounded=0;" vertex="1" parent="1">
                    <mxGeometry x="115" y="962" width="230" height="20" as="geometry"/>
                </mxCell>
                <mxCell id="165" value="" style="verticalLabelPosition=bottom;verticalAlign=top;html=1;shadow=0;dashed=0;strokeWidth=2;shape=mxgraph.android.navigation_bar_1;fillColor=#1A1A1A;strokeColor=#999999;" vertex="1" parent="1">
                    <mxGeometry x="138.5" y="882" width="185" height="30" as="geometry"/>
                </mxCell>
                <mxCell id="166" value="" style="verticalLabelPosition=bottom;verticalAlign=top;html=1;shadow=0;dashed=0;strokeWidth=1;strokeColor=none;shape=rect;fillColor=#ffbb33;" vertex="1" parent="1">
                    <mxGeometry x="139.5" y="583" width="182.5" height="300" as="geometry"/>
                </mxCell>
                <mxCell id="168" value="" style="strokeWidth=1;shadow=0;dashed=0;align=center;html=1;shape=mxgraph.mockup.forms.rrect;rSize=5;strokeColor=none;fontColor=#ffffff;fillColor=#66bbff;fontSize=16;fontStyle=1;" vertex="1" parent="1">
                    <mxGeometry x="220" y="853" width="31" height="31" as="geometry"/>
                </mxCell>
                <mxCell id="169" value="&lt;font style=&quot;font-size: 11px&quot;&gt;Search results for &quot;Tissue&quot;&lt;/font&gt;" style="text;html=1;resizable=0;autosize=1;align=center;verticalAlign=middle;points=[];fillColor=none;strokeColor=none;rounded=0;" vertex="1" parent="1">
                    <mxGeometry x="161" y="590" width="140" height="20" as="geometry"/>
                </mxCell>
                <mxCell id="170" value="" style="verticalLabelPosition=bottom;shadow=0;dashed=0;align=center;html=1;verticalAlign=top;strokeWidth=1;shape=mxgraph.mockup.misc.shoppingCart;strokeColor=#999999;fillColor=#B0B0B0;" vertex="1" parent="1">
                    <mxGeometry x="226.5" y="855" width="20" height="22" as="geometry"/>
                </mxCell>
                <mxCell id="179" value="" style="verticalLabelPosition=bottom;verticalAlign=top;html=1;shadow=0;dashed=0;strokeWidth=1;strokeColor=none;shape=rect;fillColor=#FFFFFF;" vertex="1" parent="1">
                    <mxGeometry x="150" y="620" width="80.5" height="80" as="geometry"/>
                </mxCell>
                <mxCell id="180" value="&lt;span style=&quot;font-size: 11px&quot;&gt;Tissue&lt;/span&gt;" style="text;html=1;resizable=0;autosize=1;align=center;verticalAlign=middle;points=[];fillColor=none;strokeColor=none;rounded=0;" vertex="1" parent="1">
                    <mxGeometry x="161" y="700" width="50" height="20" as="geometry"/>
                </mxCell>
                <mxCell id="182" value="" style="verticalLabelPosition=bottom;verticalAlign=top;html=1;shadow=0;dashed=0;strokeWidth=1;shape=mxgraph.android.phone2;strokeColor=#c0c0c0;fillColor=#1A1A1A;" vertex="1" parent="1">
                    <mxGeometry x="431" y="550" width="200" height="390" as="geometry"/>
                </mxCell>
                <mxCell id="183" value="&lt;font style=&quot;font-size: 24px&quot;&gt;Specific item page&lt;/font&gt;" style="text;html=1;resizable=0;autosize=1;align=center;verticalAlign=middle;points=[];fillColor=none;strokeColor=none;rounded=0;" vertex="1" parent="1">
                    <mxGeometry x="426" y="962" width="210" height="20" as="geometry"/>
                </mxCell>
                <mxCell id="184" value="" style="verticalLabelPosition=bottom;verticalAlign=top;html=1;shadow=0;dashed=0;strokeWidth=2;shape=mxgraph.android.navigation_bar_1;fillColor=#1A1A1A;strokeColor=#999999;" vertex="1" parent="1">
                    <mxGeometry x="439.5" y="882" width="185" height="30" as="geometry"/>
                </mxCell>
                <mxCell id="185" value="" style="verticalLabelPosition=bottom;verticalAlign=top;html=1;shadow=0;dashed=0;strokeWidth=1;strokeColor=none;shape=rect;fillColor=#ffbb33;" vertex="1" parent="1">
                    <mxGeometry x="440.5" y="583" width="182.5" height="300" as="geometry"/>
                </mxCell>
                <mxCell id="189" value="" style="verticalLabelPosition=bottom;verticalAlign=top;html=1;shadow=0;dashed=0;strokeWidth=1;strokeColor=none;shape=rect;fillColor=#FFFFFF;" vertex="1" parent="1">
                    <mxGeometry x="476.62" y="615" width="113.38" height="105" as="geometry"/>
                </mxCell>
                <mxCell id="191" value="&lt;font style=&quot;font-size: 36px&quot;&gt;Tissue&lt;/font&gt;" style="text;html=1;resizable=0;autosize=1;align=center;verticalAlign=middle;points=[];fillColor=none;strokeColor=none;rounded=0;" vertex="1" parent="1">
                    <mxGeometry x="471" y="585" width="120" height="30" as="geometry"/>
                </mxCell>
                <mxCell id="192" value="ADD&amp;nbsp; &amp;nbsp; &amp;nbsp;&amp;nbsp;" style="strokeWidth=1;shadow=0;dashed=0;align=center;html=1;shape=mxgraph.mockup.forms.rrect;rSize=5;strokeColor=none;fontColor=#ffffff;fillColor=#66bbff;fontSize=16;fontStyle=1;" vertex="1" parent="1">
                    <mxGeometry x="449" y="847" width="80" height="30" as="geometry"/>
                </mxCell>
                <mxCell id="193" value="BUY" style="strokeWidth=1;shadow=0;dashed=0;align=center;html=1;shape=mxgraph.mockup.forms.rrect;rSize=5;strokeColor=none;fontColor=#ffffff;fillColor=#66bbff;fontSize=16;fontStyle=1;" vertex="1" parent="1">
                    <mxGeometry x="550" y="847" width="60" height="30" as="geometry"/>
                </mxCell>
                <mxCell id="188" value="" style="verticalLabelPosition=bottom;shadow=0;dashed=0;align=center;html=1;verticalAlign=top;strokeWidth=1;shape=mxgraph.mockup.misc.shoppingCart;strokeColor=#999999;fillColor=#B0B0B0;" vertex="1" parent="1">
                    <mxGeometry x="499" y="851" width="20" height="22" as="geometry"/>
                </mxCell>
                <mxCell id="194" value="" style="html=1;verticalLabelPosition=bottom;align=center;labelBackgroundColor=#ffffff;verticalAlign=top;strokeWidth=2;strokeColor=#0080F0;shadow=0;dashed=0;shape=mxgraph.ios7.icons.back;fillColor=#FFFFFF;" vertex="1" parent="1">
                    <mxGeometry x="441" y="587.25" width="19" height="12.75" as="geometry"/>
                </mxCell>
                <mxCell id="195" value="&lt;span style=&quot;font-size: 11px&quot;&gt;This is a must have!&lt;br&gt;For drying your tears when you code&amp;nbsp;&lt;br&gt;too much.&lt;br&gt;&lt;/span&gt;" style="text;html=1;resizable=0;autosize=1;align=center;verticalAlign=middle;points=[];fillColor=none;strokeColor=none;rounded=0;" vertex="1" parent="1">
                    <mxGeometry x="431" y="730" width="200" height="50" as="geometry"/>
                </mxCell>
                <mxCell id="196" value="&lt;span style=&quot;font-size: 11px&quot;&gt;$ 1&lt;br&gt;Quantity left: 1000&lt;br&gt;&lt;/span&gt;" style="text;html=1;resizable=0;autosize=1;align=center;verticalAlign=middle;points=[];fillColor=none;strokeColor=none;rounded=0;" vertex="1" parent="1">
                    <mxGeometry x="471" y="800" width="110" height="30" as="geometry"/>
                </mxCell>
                <mxCell id="197" value="" style="verticalLabelPosition=bottom;verticalAlign=top;html=1;shadow=0;dashed=0;strokeWidth=1;shape=mxgraph.android.phone2;strokeColor=#c0c0c0;fillColor=#1A1A1A;" vertex="1" parent="1">
                    <mxGeometry x="729" y="550" width="200" height="390" as="geometry"/>
                </mxCell>
                <mxCell id="198" value="&lt;font style=&quot;font-size: 24px&quot;&gt;Cart page&lt;/font&gt;" style="text;html=1;resizable=0;autosize=1;align=center;verticalAlign=middle;points=[];fillColor=none;strokeColor=none;rounded=0;" vertex="1" parent="1">
                    <mxGeometry x="769" y="962" width="120" height="20" as="geometry"/>
                </mxCell>
                <mxCell id="199" value="" style="verticalLabelPosition=bottom;verticalAlign=top;html=1;shadow=0;dashed=0;strokeWidth=2;shape=mxgraph.android.navigation_bar_1;fillColor=#1A1A1A;strokeColor=#999999;" vertex="1" parent="1">
                    <mxGeometry x="737.5" y="882" width="185" height="30" as="geometry"/>
                </mxCell>
                <mxCell id="200" value="" style="verticalLabelPosition=bottom;verticalAlign=top;html=1;shadow=0;dashed=0;strokeWidth=1;strokeColor=none;shape=rect;fillColor=#ffbb33;" vertex="1" parent="1">
                    <mxGeometry x="738.5" y="583" width="182.5" height="300" as="geometry"/>
                </mxCell>
                <mxCell id="202" value="&lt;font style=&quot;font-size: 18px&quot;&gt;Your cart&lt;/font&gt;" style="text;html=1;resizable=0;autosize=1;align=center;verticalAlign=middle;points=[];fillColor=none;strokeColor=none;rounded=0;" vertex="1" parent="1">
                    <mxGeometry x="784" y="590" width="90" height="20" as="geometry"/>
                </mxCell>
                <mxCell id="203" value="REMOVE&amp;nbsp;" style="strokeWidth=1;shadow=0;dashed=0;align=center;html=1;shape=mxgraph.mockup.forms.rrect;rSize=5;strokeColor=none;fontColor=#ffffff;fillColor=#66bbff;fontSize=16;fontStyle=1;" vertex="1" parent="1">
                    <mxGeometry x="747" y="847" width="80" height="30" as="geometry"/>
                </mxCell>
                <mxCell id="204" value="BUY" style="strokeWidth=1;shadow=0;dashed=0;align=center;html=1;shape=mxgraph.mockup.forms.rrect;rSize=5;strokeColor=none;fontColor=#ffffff;fillColor=#66bbff;fontSize=16;fontStyle=1;" vertex="1" parent="1">
                    <mxGeometry x="848" y="847" width="60" height="30" as="geometry"/>
                </mxCell>
                <mxCell id="206" value="" style="html=1;verticalLabelPosition=bottom;align=center;labelBackgroundColor=#ffffff;verticalAlign=top;strokeWidth=2;strokeColor=#0080F0;shadow=0;dashed=0;shape=mxgraph.ios7.icons.back;fillColor=#FFFFFF;" vertex="1" parent="1">
                    <mxGeometry x="739" y="587.25" width="19" height="12.75" as="geometry"/>
                </mxCell>
                <mxCell id="209" value="" style="strokeWidth=1;html=1;shadow=0;dashed=0;shape=mxgraph.android.rrect;rSize=0;strokeColor=#888888;fillColor=#444444;" vertex="1" parent="1">
                    <mxGeometry x="740" y="630" width="170" height="110" as="geometry"/>
                </mxCell>
                <mxCell id="210" value="Tissue x 42" style="strokeColor=inherit;fillColor=inherit;gradientColor=inherit;strokeWidth=1;html=1;shadow=0;dashed=0;shape=mxgraph.android.rrect;rSize=0;align=left;spacingLeft=10;fontSize=8;fontColor=#ffffff;" vertex="1" parent="209">
                    <mxGeometry width="170" height="27.500000000000004" as="geometry"/>
                </mxCell>
                <mxCell id="211" value="Portable monitor x 1" style="strokeColor=inherit;fillColor=inherit;gradientColor=inherit;strokeWidth=1;html=1;shadow=0;dashed=0;shape=mxgraph.android.rrect;rSize=0;align=left;spacingLeft=10;fontSize=8;fontColor=#ffffff;" vertex="1" parent="209">
                    <mxGeometry y="27.500000000000004" width="170" height="27.500000000000004" as="geometry"/>
                </mxCell>
                <mxCell id="212" value="Track pants x 2" style="strokeColor=inherit;fillColor=inherit;gradientColor=inherit;strokeWidth=1;html=1;shadow=0;dashed=0;shape=mxgraph.android.rrect;rSize=0;align=left;spacingLeft=10;fontSize=8;fontColor=#ffffff;" vertex="1" parent="209">
                    <mxGeometry y="55.00000000000001" width="170" height="27.500000000000004" as="geometry"/>
                </mxCell>
                <mxCell id="213" value="Wireless earpiece x 1" style="strokeColor=inherit;fillColor=inherit;gradientColor=inherit;strokeWidth=1;html=1;shadow=0;dashed=0;shape=mxgraph.android.rrect;rSize=0;align=left;spacingLeft=10;fontSize=8;fontColor=#ffffff;" vertex="1" parent="209">
                    <mxGeometry y="82.5" width="170" height="27.500000000000004" as="geometry"/>
                </mxCell>
                <mxCell id="214" value="&lt;span style=&quot;font-size: 11px&quot;&gt;Total cost:&lt;br&gt;$xxx&lt;br&gt;&lt;/span&gt;" style="text;html=1;resizable=0;autosize=1;align=center;verticalAlign=middle;points=[];fillColor=none;strokeColor=none;rounded=0;" vertex="1" parent="1">
                    <mxGeometry x="794" y="790" width="70" height="30" as="geometry"/>
                </mxCell>
                <mxCell id="218" value="" style="html=1;shadow=0;dashed=0;shape=mxgraph.bootstrap.radioButton2;labelPosition=right;verticalLabelPosition=middle;align=left;verticalAlign=middle;gradientColor=#DEDEDE;fillColor=#EDEDED;checked=1;spacing=5;checkedFill=#0085FC;checkedStroke=#ffffff;" vertex="1" parent="1">
                    <mxGeometry x="889" y="640" width="10" height="10" as="geometry"/>
                </mxCell>
                <mxCell id="221" value="" style="html=1;shadow=0;dashed=0;shape=mxgraph.bootstrap.radioButton2;labelPosition=right;verticalLabelPosition=middle;align=left;verticalAlign=middle;gradientColor=#DEDEDE;fillColor=#EDEDED;checked=0;spacing=5;fontColor=#6C767D;checkedFill=#0085FC;checkedStroke=#ffffff;" vertex="1" parent="1">
                    <mxGeometry x="889" y="720" width="10" height="10" as="geometry"/>
                </mxCell>
                <mxCell id="222" value="" style="html=1;shadow=0;dashed=0;shape=mxgraph.bootstrap.radioButton2;labelPosition=right;verticalLabelPosition=middle;align=left;verticalAlign=middle;gradientColor=#DEDEDE;fillColor=#EDEDED;checked=0;spacing=5;fontColor=#6C767D;checkedFill=#0085FC;checkedStroke=#ffffff;" vertex="1" parent="1">
                    <mxGeometry x="889" y="662.5" width="10" height="10" as="geometry"/>
                </mxCell>
                <mxCell id="223" value="" style="html=1;shadow=0;dashed=0;shape=mxgraph.bootstrap.radioButton2;labelPosition=right;verticalLabelPosition=middle;align=left;verticalAlign=middle;gradientColor=#DEDEDE;fillColor=#EDEDED;checked=0;spacing=5;fontColor=#6C767D;checkedFill=#0085FC;checkedStroke=#ffffff;" vertex="1" parent="1">
                    <mxGeometry x="889" y="690" width="10" height="10" as="geometry"/>
                </mxCell>
                <mxCell id="224" value="" style="verticalLabelPosition=bottom;verticalAlign=top;html=1;shadow=0;dashed=0;strokeWidth=1;shape=mxgraph.android.phone2;strokeColor=#c0c0c0;fillColor=#1A1A1A;" vertex="1" parent="1">
                    <mxGeometry x="1002.5" y="550" width="200" height="390" as="geometry"/>
                </mxCell>
                <mxCell id="225" value="&lt;font style=&quot;font-size: 24px&quot;&gt;Account page&lt;/font&gt;" style="text;html=1;resizable=0;autosize=1;align=center;verticalAlign=middle;points=[];fillColor=none;strokeColor=none;rounded=0;" vertex="1" parent="1">
                    <mxGeometry x="1022.5" y="962" width="160" height="20" as="geometry"/>
                </mxCell>
                <mxCell id="226" value="" style="verticalLabelPosition=bottom;verticalAlign=top;html=1;shadow=0;dashed=0;strokeWidth=2;shape=mxgraph.android.navigation_bar_1;fillColor=#1A1A1A;strokeColor=#999999;" vertex="1" parent="1">
                    <mxGeometry x="1011" y="882" width="185" height="30" as="geometry"/>
                </mxCell>
                <mxCell id="227" value="" style="verticalLabelPosition=bottom;verticalAlign=top;html=1;shadow=0;dashed=0;strokeWidth=1;strokeColor=none;shape=rect;fillColor=#ffbb33;" vertex="1" parent="1">
                    <mxGeometry x="1012" y="583" width="182.5" height="300" as="geometry"/>
                </mxCell>
                <mxCell id="228" value="&lt;font style=&quot;font-size: 18px&quot;&gt;Hi, bb0000001&lt;/font&gt;" style="text;html=1;resizable=0;autosize=1;align=center;verticalAlign=middle;points=[];fillColor=none;strokeColor=none;rounded=0;" vertex="1" parent="1">
                    <mxGeometry x="1037.5" y="590" width="130" height="20" as="geometry"/>
                </mxCell>
                <mxCell id="231" value="" style="html=1;verticalLabelPosition=bottom;align=center;labelBackgroundColor=#ffffff;verticalAlign=top;strokeWidth=2;strokeColor=#0080F0;shadow=0;dashed=0;shape=mxgraph.ios7.icons.back;fillColor=#FFFFFF;" vertex="1" parent="1">
                    <mxGeometry x="1012.5" y="587.25" width="19" height="12.75" as="geometry"/>
                </mxCell>
                <mxCell id="237" value="Items bought:" style="text;html=1;resizable=0;autosize=1;align=center;verticalAlign=middle;points=[];fillColor=none;strokeColor=none;rounded=0;" vertex="1" parent="1">
                    <mxGeometry x="1057.5" y="620" width="90" height="20" as="geometry"/>
                </mxCell>
                <mxCell id="243" value="&lt;span style=&quot;font-size: 11px&quot;&gt;Tissue x 42&lt;br&gt;&lt;/span&gt;" style="text;html=1;resizable=0;autosize=1;align=center;verticalAlign=middle;points=[];fillColor=none;strokeColor=none;rounded=0;" vertex="1" parent="1">
                    <mxGeometry x="1062.5" y="640" width="70" height="20" as="geometry"/>
                </mxCell>
                <mxCell id="245" value="" style="shape=image;verticalLabelPosition=bottom;labelBackgroundColor=#ffffff;verticalAlign=top;aspect=fixed;imageAspect=0;image=data:image/jpeg,/9j/4AAQSkZJRgABAQAAAQABAAD/2wCEAAoHCBYWFRgWFhYYGBgaHBgeGBwZGhoZGBkYHhgaIx8aHBwcIy4lHB8rIRgaJjgmKy80NTU1GiQ7QDszPy40NTEBDAwMEA8QHhISHjElJSw3NjQ2NDQ/NDQ0NDE0MTQ0NDs9NDcxNjU0MTQ9NDQ0NDQ0NjQ0NDQ9NDQ0NjQ0NDQ0NP/AABEIAMIBAwMBIgACEQEDEQH/xAAbAAEAAgMBAQAAAAAAAAAAAAAABAUCAwcGAf/EAD4QAAIBAgMFBQMJCAIDAAAAAAECAAMRBBIhBTFBUXEiYZGxwQaBoQcTFDJCUtHh8ENTYnKCksLxI9IVF7L/xAAZAQEAAwEBAAAAAAAAAAAAAAAAAQIDBAX/xAAuEQACAgEDAwMCBQUBAAAAAAAAAQIRAxIhMRNBUQRhoYGRFSIyQnEUI9Hh8AX/2gAMAwEAAhEDEQA/AOzREQBERAEREAREQBERAEREAREQBERAEREAREQBERAEREAREQBERAEREAREQBERAEREAREQBERAEREAREQBERAEREAREQBE1VqyqLsQo5k2nk9u+0xsUo3XgXOh/oHDqfDjAPVrXUsVDKWG8AgkdRwm6c99lMSUq2P2r+9vznQQYB9iIgCIiAIiIAiIgCIiAIiIAiIgCIiAIiIAiIgCIiAIiIAiIgCQ9pHsEcyvmD6SZK7azaKO8nwFv8oBXEQHI3EjpMQZ9vJBoxKZ/rG/eTrKjFbODHsmx7935S2d5HeqBvkAqmwr0XUm194sb7jOh4drqJ4JnNWpp3AdJ7jC1Boo5eVh6iCWSoiIIEREAREQBERAEREAREQBERAEREAREQBERAEREAREQBERAEqNqNdgOQ8/9CW889iHuzN/EfAGw+AgGDGfCZgzzB3kknxjKXH1sxyiS8bibDSQ8BQLteQSi12Lhbdrwl9hdGJ5eXH9dwkSimVbCS8M2sEFpEwp7pnBAiIgCIiAIiIAiIgCIiAIiIAiIgCIiAIiIAiJoxVdURnbcoLHoBwgG6Jyer8qVcHTDU/e7egtMX+VDEjdh6J6M5t75XUjV4JrlHWonJB8p+Jtf5ikP7j/AJTEfKfiT+yojvK1P+0akOjI67PM37IvvIHjPCf+z8WWsqYf+2p/3nt8JULojjiiMR1USydlZQlHkyCEgnlrI1R7ECWSGyse4yhep2j3SSqI+POZ8ol1s7DBFEqNmJnYueekvfnBaQSSi0zRpCWrfTj5zYlYQC5w73kiVOGrDnPJ7SxtelUdDUqkA9khibqdQdNd0rKWlWXx4nN0mdCvF5y5touf29QHvd/ImaW2nWX9ozdHb8ZTq+xuvRyfc6tmn2cmOKqG7k1Mv8NQ6edpjhdsVadQOjNp9l2LBhxB5yVk9if6OXZnW4lZsbai10DKCp+0p3qfUcj/AKlnLp2cbTTpn2IiSQIiIAiIgCIiAIiIAiIgHyc++VDbLIi4dCQX7VQjggOgvwubn+jvnu8RWVEZ2IVVBZidwAFyT0AnFdp7YFeq9ZmAzNoOKruVbdwA+MzySpHT6WGqd1aRXbMoU2N3ubfZ01/KWuJp02QquhtZdLCVFWohOlweBUcek2UHfNlZsn84I8NPOc+7PRnj1PU/saGwRBGbLa/A8OhmGIYfVCsw7hw5iW7bJuoOcluZ1U/hNlHFIhyugRhxABHXnrLKRRwi91u/Y8lTpvfQHQzq2zcYVoYZidcgVuVwB+M8iH/5P+IZg1rrY6nW9hv/AEZbByUykhMr/U4qbC4ty902hK2c/qsclFNL/J7WrVtSZuYnnjU0J4nsj1+EkVNoL8yEJAbTfpccN8iXC5WbRbdm9gCeJHP8praOJQl4ZbYJcqgSQzypTaK8MvvcCfX2i3D5vxzesWienPwyzU6za9zulKm1XJtmW/8ACt/UzYcVXHauco33UA285DlFdx05+GWlMuu4GR9voXVai2DL2WvxB3eB/wDqQvp9R75Wt4gSp2ph6tVSpfLuN81tQbgkW1sQJScotVZrjhkjJOmfcU7FdUTT7QkZKxClbAjvFyOhklsOgAu+vGxuL9JFyC+/T0nOmj2IpVRsobPZu1lOXutfwJEm/RqScXQ82BsetwVkukUtp86vQVCPiCJrxFYAaVmHc9O/+IlXJs55SlJ1uYJtZqLBlZH71Nm6Ea3E9lsLbqYhdOy4+sp32+8OY8vC/NgAzdrdfXKAD7hukr6Y9Mr829QAG4zKBlPdqZpCWkjL6WMlS58nWYE8/wCzvtCK4yPZag3jg3ev4S/nQmmrR5U4ShLTJbmUREkqIiIAiIgCIiAIiIB4D5UtsZKC4dD2qxu1uFNTr/c1h3gNOZ4PBs7WA6ngP1yl37a1TUx9cOSChVQLXAQKrKByBDX6sZTpTK/VYjpcH4GYTlbPc9Lj04VXL3LbC7Oembrkf+YFT7jrym+viHAOeldeNmDDylaj1P3j+J/GbPm2be7HqSfWZfyX6Em7lTMECs/YtTB33YgDwGkzXsPc5KnU51PxGvWS0ppky5FJse0c1/AMJqXCDn5Sbo1jDsyOR2rgZdbgAnTod8nULkXJJJOpJuT1JmK4Yd8k00tpGos4GJEZSZvVJsVRGsKNGIrOVWn2FS/3QNfvM2pmeIw6rbK6vzyhhY9SNZlkA/OTKmy3VM7IAumtxx3aA34wpNlWoxa3q/lmGzsUU7KUwzHjrcy1Q1j9lF6ksfhpKilRJIyg34Wvf4S0o0cSB9YD+bKfQmUk0Y5oRu7X1Ie0MCwUvde/KMvvmjDUaZHG/wDEdfAS0rHEAEnKQN9gp094lXScBsxUMeHDXnIttFoJyi1f2JP0ZPujwmioKa8ATyH60mw1nc5Rp3DQe8yVQwAH1iSfhK8cshx0/qZHwOOfRFC92Yn3DQSzajXPFB0Vj5mfadl3adND4za+OquctIAAaFmJOvU7/jF3wc81+a4pL+Skx2yKiguxB6KVJPcAN80U6TObVWqWG64ZhfoSLS9bYzMb1KhY9L+Z9JUY7DqjFVbMBv3aHlLxl2N8Uoz2u37Lgi/Q3VsynKAQVZmVW7jbNcHpPe+z2Peqh+cykrpmVgQ3eQPqnu8t08hSrUhTIyXqm4u2oUcwOfrPWeytDLQB4uWb0HwE2xcnP61f27kt7pMvYiJ0HkiIiAIiIAiIgCIiAcZ+UbC5NoMwFvnKdNyebDMh+FNfhM9hVsylTa4tYBbWHeRv89JefKjgS1TDOLAZaqsffTK/5zxuGzK+VHK34k5BpznLl5aPY9PU8Cj3PXhgBcmw4k6So2piEewQX11bdfuHObKOzc9i7l+Vjce4m/wk76FSUXKiw3kkzHgmDhCXLb9iuwNSiEOemXe+lmIFraXsevCRBx4dOHdM2K3JAIBJtfgJPxNSlkVaaEHezNv/AJRL3aOu9Mrpu/ggKJuRZ8yMBmynKTa/C/L4T4j84NLs3hZsRbTQWM3YRc7KuYLmNrncDwiiG6Vsk0MOzmyrmIF7C17e/rMmzAZTmAvqpuBfpMaiPRexNmGoIPxHdBdmYsbsTqTv/wBQ9jNNt3s0bcPXZSGXePf4y1pbVU/XBU+I/GR9m40ABG05Hh0PKWdQKR2gCO+1pmzmyyWqmvqQNp4tSllZTffrY27hxlEDNmMdcxyjs+Ph3TReaRWx14YKMdiz2fWH1bAbyTff3SxBnnb/AJyS+JLWUCw3WEpKNspPFqdol4rFX7Ke8jyEt9ikhLPoBu3aDl13yvwuGCDv4n0EkX8JVtcI58lSWlfcl4yo7rlpdm+9jpp3fq8r22OiIWdmYgcNBfgBxOstcJi0ZbroF3jXTfxtrumQp/OG50UbuZi2jCM5Q24XfyeOynlu3zpmEplUVTa4ABsLC9hw4Tz+LVbpSVR2nW4H3QQSfhPTidWDe2ZeszdRR2oyiInQcIiIgCIiAIiIAiIgHkflFo3wyvuyVFJPcwKW8XXwnNMRXRrWNyOW7851v2ywoqYKup3BQ/8AYyv/AIzlmGwqD7Pjr5zmzUpJno+iklHfsyTgtsZUysCSNBuAsBoLyclB61i5yJwUb+tj5mUTXV94uDwGnhLzZ+1Bls51FzfnrusB+rTJ+x2zhS1QW5OfCU0QkqDYcdST6SpSkx+qpbnYSajnENbVUXxJ/HylqAqIbCwAJleCiySxqnu38FHiNoM6IlgFXcAN+nH9cZtwr0xScNq7Wy6brW3Hhx8I2bgA/aYHKPifwmOJw1quReNrd15fVua3C9C2rcz2filRwzDMLMCNDvBHH9azSWFyVFhc2HIX0EmbQ2eEQMtzbRr9/GSsBg0akLjVrm/HefwjVsS8kUta77EOjhnqZiNSN5J1JP8AqS9mVCjlXuua2/gRu85ls8FHZDx3d9r2+F/CWr4dHFn05HdY9ZW7dGOXLTcWtn4FTCq+hW54HcfGU2KZqRamWzLbcdRYj4GbPprqpS+oPZYHgD8RIleoXbMxuTv8LSUi2LHJP826PlTB2pCoW3mwW3eeN+QM0YXCO7ZUFz7h5y7wuywQCzZl0KAGw77g+6Z4xTR7VMABiA1hutrpyB1llJcErPu4p2+3grsPsio1rjLqQb7xbjabMFhD87kNwRe5HcNPSekw1nAa/ZIveVNJx9JPfceC/lKtszWectSfZE2hgTYBmudbnytIQpmpmVToo1PNuCyxx9fIpPE6DrMNkU8tMHiST8dPKZ+5ipSUXJ/Q1U8CyJr3E68ZLTHqq9oWA48N3xM1YnFFnFNdde0eAm/E4dWWx3AGx5ab5Hcq3da+5jsJM9Rqrb9Qo5Dd6+c9LKX2fRcrFdRooPQX9RLkztwqonHndzfsZRETYxEREAREQBERAEREAi7QoZ6VRPvoy/3KR6ziuyvnHKhrAEb9DwvuvO5GcUeuqVqiZspSo68vquy6eEwzLh0dnpG90jRj6LK5DHNuANgOF93vmzDYZ2BZVJA32/Ws04yoGfMLG+8jUk98l4bHsqFFAFySTxsQBYeG+YnrRctCrkkYTHOlgNwvodL9bSTitoFwqDs3tm6+glfhaLOwRd53nkOJm3G0MjZcwbpvHWKDjDUvJ6HDVEsFRhp2R3nu5yJScPiCeCg2PQWPmZSJ3zcjEbjv06jlI0lVgq6fJ6XHEfNvf7p/L4yPszFKKS5juJXnvufWUwvbW8+osVsQsC0033LipiqbOpOawB3c76HpvM043EZ2NmJXTTXgOUwFOnkvnIe2osSLzVRQsQBa5NhFCMIrffbyb8Nhy5sLX62PuvLtdnJly2vv10zeIEj/APixYFXKt469RYz4uOdDldb8iOI8jKmM5yyfof04NdKs1Byj3KHUHkOY9RJW06qNSJDA3ItrxuPSQto4xXC5b3B4gbvHpIVoLxxXUnsyVgccyDLYEcL6WP4TOogWzCoGe97AaePGQ1ElthgFzB1J00GpkmkoxUr4v5McRXZzdvcOAklcewQINLC1+JHpIV59UypLhFpKuC12bWRFLMQCTu42HdM87VjYXVBv5t3SnaXFOowRVQC9u89TDOfLFR/MuX8HpNmUwtMACw187ekmTRg0KoqneFF+ttT43m+d8VSSPHk7bZ9iIliBERAEREAREQBERAPk5B7S4VPpuIUqDZwb7j26aPv6uZ1+Qa2yqDsWajTZm+sWRWJsANSRroAPdKTjqVGuLJ05ajh5IvYCw7zf4zYr94nbKey6C/Vo0h0RR5CSFoINyqOgAlOl7nf+IpcR+TiuHdgezf8Apv4aSdhdm1ahsqN3kqwA+Gs7DaI6PuVf/oPtGvr/AKOTPsasrEClUbvCMQfhN9PYtc/sX/tt5zqcR0l5KfiE64RzZfZ3E/uj/cg82mxPZrE/uwOrL6GdFiOjEh+vyeF/31PD0/ZSqRckA8r3m7CezmIQ3BpdCWP+M9jPsnoxM36zK9mUdLZb/aK+658xGL2DnWxcDkct7fGXc+x0YeDJZpp2tjy6+yfOqfctvUzcPZVONR/dlHpPRRLdOPgu/VZn+4oF9l6P3nPvX0E3D2cocmP9R9JcxJ0R8FX6jK/3MqRsCh9wnqz/AIzaNi0P3Y95Y+ZljEaY+CrzZH+5/chJsuiDcU0v/KJITDqNygdABNsRS8FHKT5Z9iIliBERAEREAREQBERAEREAREQBERAEREAREQBERAEREAREQBERAEREAREQBERAEREAREQBERAEREAREQBERAEREAREQBERAEREAREQBERAEREAREQBERAEREAREQBERAEREAREQD//2Q==;" vertex="1" parent="1">
                    <mxGeometry x="1116.5" y="303" width="76.1" height="57" as="geometry"/>
                </mxCell>
                <mxCell id="246" value="" style="shape=image;verticalLabelPosition=bottom;labelBackgroundColor=#ffffff;verticalAlign=top;aspect=fixed;imageAspect=0;image=data:image/jpeg,/9j/4AAQSkZJRgABAQAAAQABAAD/2wCEAAoHCBYWFRgWFhYYGBgaHBgeGBwZGhoZGBkYHhgaIx8aHBwcIy4lHB8rIRgaJjgmKy80NTU1GiQ7QDszPy40NTEBDAwMEA8QHhISHjElJSw3NjQ2NDQ/NDQ0NDE0MTQ0NDs9NDcxNjU0MTQ9NDQ0NDQ0NjQ0NDQ9NDQ0NjQ0NDQ0NP/AABEIAMIBAwMBIgACEQEDEQH/xAAbAAEAAgMBAQAAAAAAAAAAAAAABAUCAwcGAf/EAD4QAAIBAgMFBQMJCAIDAAAAAAECAAMRBBIhBTFBUXEiYZGxwQaBoQcTFDJCUtHh8ENTYnKCksLxI9IVF7L/xAAZAQEAAwEBAAAAAAAAAAAAAAAAAQIDBAX/xAAuEQACAgEDAwMCBQUBAAAAAAAAAQIRAxIhMRNBUQRhoYGRFSIyQnEUI9Hh8AX/2gAMAwEAAhEDEQA/AOzREQBERAEREAREQBERAEREAREQBERAEREAREQBERAEREAREQBERAEREAREQBERAEREAREQBERAEREAREQBERAEREAREQBE1VqyqLsQo5k2nk9u+0xsUo3XgXOh/oHDqfDjAPVrXUsVDKWG8AgkdRwm6c99lMSUq2P2r+9vznQQYB9iIgCIiAIiIAiIgCIiAIiIAiIgCIiAIiIAiIgCIiAIiIAiIgCQ9pHsEcyvmD6SZK7azaKO8nwFv8oBXEQHI3EjpMQZ9vJBoxKZ/rG/eTrKjFbODHsmx7935S2d5HeqBvkAqmwr0XUm194sb7jOh4drqJ4JnNWpp3AdJ7jC1Boo5eVh6iCWSoiIIEREAREQBERAEREAREQBERAEREAREQBERAEREAREQBERAEqNqNdgOQ8/9CW889iHuzN/EfAGw+AgGDGfCZgzzB3kknxjKXH1sxyiS8bibDSQ8BQLteQSi12Lhbdrwl9hdGJ5eXH9dwkSimVbCS8M2sEFpEwp7pnBAiIgCIiAIiIAiIgCIiAIiIAiIgCIiAIiIAiJoxVdURnbcoLHoBwgG6Jyer8qVcHTDU/e7egtMX+VDEjdh6J6M5t75XUjV4JrlHWonJB8p+Jtf5ikP7j/AJTEfKfiT+yojvK1P+0akOjI67PM37IvvIHjPCf+z8WWsqYf+2p/3nt8JULojjiiMR1USydlZQlHkyCEgnlrI1R7ECWSGyse4yhep2j3SSqI+POZ8ol1s7DBFEqNmJnYueekvfnBaQSSi0zRpCWrfTj5zYlYQC5w73kiVOGrDnPJ7SxtelUdDUqkA9khibqdQdNd0rKWlWXx4nN0mdCvF5y5touf29QHvd/ImaW2nWX9ozdHb8ZTq+xuvRyfc6tmn2cmOKqG7k1Mv8NQ6edpjhdsVadQOjNp9l2LBhxB5yVk9if6OXZnW4lZsbai10DKCp+0p3qfUcj/AKlnLp2cbTTpn2IiSQIiIAiIgCIiAIiIAiIgHyc++VDbLIi4dCQX7VQjggOgvwubn+jvnu8RWVEZ2IVVBZidwAFyT0AnFdp7YFeq9ZmAzNoOKruVbdwA+MzySpHT6WGqd1aRXbMoU2N3ubfZ01/KWuJp02QquhtZdLCVFWohOlweBUcek2UHfNlZsn84I8NPOc+7PRnj1PU/saGwRBGbLa/A8OhmGIYfVCsw7hw5iW7bJuoOcluZ1U/hNlHFIhyugRhxABHXnrLKRRwi91u/Y8lTpvfQHQzq2zcYVoYZidcgVuVwB+M8iH/5P+IZg1rrY6nW9hv/AEZbByUykhMr/U4qbC4ty902hK2c/qsclFNL/J7WrVtSZuYnnjU0J4nsj1+EkVNoL8yEJAbTfpccN8iXC5WbRbdm9gCeJHP8praOJQl4ZbYJcqgSQzypTaK8MvvcCfX2i3D5vxzesWienPwyzU6za9zulKm1XJtmW/8ACt/UzYcVXHauco33UA285DlFdx05+GWlMuu4GR9voXVai2DL2WvxB3eB/wDqQvp9R75Wt4gSp2ph6tVSpfLuN81tQbgkW1sQJScotVZrjhkjJOmfcU7FdUTT7QkZKxClbAjvFyOhklsOgAu+vGxuL9JFyC+/T0nOmj2IpVRsobPZu1lOXutfwJEm/RqScXQ82BsetwVkukUtp86vQVCPiCJrxFYAaVmHc9O/+IlXJs55SlJ1uYJtZqLBlZH71Nm6Ea3E9lsLbqYhdOy4+sp32+8OY8vC/NgAzdrdfXKAD7hukr6Y9Mr829QAG4zKBlPdqZpCWkjL6WMlS58nWYE8/wCzvtCK4yPZag3jg3ev4S/nQmmrR5U4ShLTJbmUREkqIiIAiIgCIiAIiIB4D5UtsZKC4dD2qxu1uFNTr/c1h3gNOZ4PBs7WA6ngP1yl37a1TUx9cOSChVQLXAQKrKByBDX6sZTpTK/VYjpcH4GYTlbPc9Lj04VXL3LbC7Oembrkf+YFT7jrym+viHAOeldeNmDDylaj1P3j+J/GbPm2be7HqSfWZfyX6Em7lTMECs/YtTB33YgDwGkzXsPc5KnU51PxGvWS0ppky5FJse0c1/AMJqXCDn5Sbo1jDsyOR2rgZdbgAnTod8nULkXJJJOpJuT1JmK4Yd8k00tpGos4GJEZSZvVJsVRGsKNGIrOVWn2FS/3QNfvM2pmeIw6rbK6vzyhhY9SNZlkA/OTKmy3VM7IAumtxx3aA34wpNlWoxa3q/lmGzsUU7KUwzHjrcy1Q1j9lF6ksfhpKilRJIyg34Wvf4S0o0cSB9YD+bKfQmUk0Y5oRu7X1Ie0MCwUvde/KMvvmjDUaZHG/wDEdfAS0rHEAEnKQN9gp094lXScBsxUMeHDXnIttFoJyi1f2JP0ZPujwmioKa8ATyH60mw1nc5Rp3DQe8yVQwAH1iSfhK8cshx0/qZHwOOfRFC92Yn3DQSzajXPFB0Vj5mfadl3adND4za+OquctIAAaFmJOvU7/jF3wc81+a4pL+Skx2yKiguxB6KVJPcAN80U6TObVWqWG64ZhfoSLS9bYzMb1KhY9L+Z9JUY7DqjFVbMBv3aHlLxl2N8Uoz2u37Lgi/Q3VsynKAQVZmVW7jbNcHpPe+z2Peqh+cykrpmVgQ3eQPqnu8t08hSrUhTIyXqm4u2oUcwOfrPWeytDLQB4uWb0HwE2xcnP61f27kt7pMvYiJ0HkiIiAIiIAiIgCIiAcZ+UbC5NoMwFvnKdNyebDMh+FNfhM9hVsylTa4tYBbWHeRv89JefKjgS1TDOLAZaqsffTK/5zxuGzK+VHK34k5BpznLl5aPY9PU8Cj3PXhgBcmw4k6So2piEewQX11bdfuHObKOzc9i7l+Vjce4m/wk76FSUXKiw3kkzHgmDhCXLb9iuwNSiEOemXe+lmIFraXsevCRBx4dOHdM2K3JAIBJtfgJPxNSlkVaaEHezNv/AJRL3aOu9Mrpu/ggKJuRZ8yMBmynKTa/C/L4T4j84NLs3hZsRbTQWM3YRc7KuYLmNrncDwiiG6Vsk0MOzmyrmIF7C17e/rMmzAZTmAvqpuBfpMaiPRexNmGoIPxHdBdmYsbsTqTv/wBQ9jNNt3s0bcPXZSGXePf4y1pbVU/XBU+I/GR9m40ABG05Hh0PKWdQKR2gCO+1pmzmyyWqmvqQNp4tSllZTffrY27hxlEDNmMdcxyjs+Ph3TReaRWx14YKMdiz2fWH1bAbyTff3SxBnnb/AJyS+JLWUCw3WEpKNspPFqdol4rFX7Ke8jyEt9ikhLPoBu3aDl13yvwuGCDv4n0EkX8JVtcI58lSWlfcl4yo7rlpdm+9jpp3fq8r22OiIWdmYgcNBfgBxOstcJi0ZbroF3jXTfxtrumQp/OG50UbuZi2jCM5Q24XfyeOynlu3zpmEplUVTa4ABsLC9hw4Tz+LVbpSVR2nW4H3QQSfhPTidWDe2ZeszdRR2oyiInQcIiIgCIiAIiIAiIgHkflFo3wyvuyVFJPcwKW8XXwnNMRXRrWNyOW7851v2ywoqYKup3BQ/8AYyv/AIzlmGwqD7Pjr5zmzUpJno+iklHfsyTgtsZUysCSNBuAsBoLyclB61i5yJwUb+tj5mUTXV94uDwGnhLzZ+1Bls51FzfnrusB+rTJ+x2zhS1QW5OfCU0QkqDYcdST6SpSkx+qpbnYSajnENbVUXxJ/HylqAqIbCwAJleCiySxqnu38FHiNoM6IlgFXcAN+nH9cZtwr0xScNq7Wy6brW3Hhx8I2bgA/aYHKPifwmOJw1quReNrd15fVua3C9C2rcz2filRwzDMLMCNDvBHH9azSWFyVFhc2HIX0EmbQ2eEQMtzbRr9/GSsBg0akLjVrm/HefwjVsS8kUta77EOjhnqZiNSN5J1JP8AqS9mVCjlXuua2/gRu85ls8FHZDx3d9r2+F/CWr4dHFn05HdY9ZW7dGOXLTcWtn4FTCq+hW54HcfGU2KZqRamWzLbcdRYj4GbPprqpS+oPZYHgD8RIleoXbMxuTv8LSUi2LHJP826PlTB2pCoW3mwW3eeN+QM0YXCO7ZUFz7h5y7wuywQCzZl0KAGw77g+6Z4xTR7VMABiA1hutrpyB1llJcErPu4p2+3grsPsio1rjLqQb7xbjabMFhD87kNwRe5HcNPSekw1nAa/ZIveVNJx9JPfceC/lKtszWectSfZE2hgTYBmudbnytIQpmpmVToo1PNuCyxx9fIpPE6DrMNkU8tMHiST8dPKZ+5ipSUXJ/Q1U8CyJr3E68ZLTHqq9oWA48N3xM1YnFFnFNdde0eAm/E4dWWx3AGx5ab5Hcq3da+5jsJM9Rqrb9Qo5Dd6+c9LKX2fRcrFdRooPQX9RLkztwqonHndzfsZRETYxEREAREQBERAEREAi7QoZ6VRPvoy/3KR6ziuyvnHKhrAEb9DwvuvO5GcUeuqVqiZspSo68vquy6eEwzLh0dnpG90jRj6LK5DHNuANgOF93vmzDYZ2BZVJA32/Ws04yoGfMLG+8jUk98l4bHsqFFAFySTxsQBYeG+YnrRctCrkkYTHOlgNwvodL9bSTitoFwqDs3tm6+glfhaLOwRd53nkOJm3G0MjZcwbpvHWKDjDUvJ6HDVEsFRhp2R3nu5yJScPiCeCg2PQWPmZSJ3zcjEbjv06jlI0lVgq6fJ6XHEfNvf7p/L4yPszFKKS5juJXnvufWUwvbW8+osVsQsC0033LipiqbOpOawB3c76HpvM043EZ2NmJXTTXgOUwFOnkvnIe2osSLzVRQsQBa5NhFCMIrffbyb8Nhy5sLX62PuvLtdnJly2vv10zeIEj/APixYFXKt469RYz4uOdDldb8iOI8jKmM5yyfof04NdKs1Byj3KHUHkOY9RJW06qNSJDA3ItrxuPSQto4xXC5b3B4gbvHpIVoLxxXUnsyVgccyDLYEcL6WP4TOogWzCoGe97AaePGQ1ElthgFzB1J00GpkmkoxUr4v5McRXZzdvcOAklcewQINLC1+JHpIV59UypLhFpKuC12bWRFLMQCTu42HdM87VjYXVBv5t3SnaXFOowRVQC9u89TDOfLFR/MuX8HpNmUwtMACw187ekmTRg0KoqneFF+ttT43m+d8VSSPHk7bZ9iIliBERAEREAREQBERAPk5B7S4VPpuIUqDZwb7j26aPv6uZ1+Qa2yqDsWajTZm+sWRWJsANSRroAPdKTjqVGuLJ05ajh5IvYCw7zf4zYr94nbKey6C/Vo0h0RR5CSFoINyqOgAlOl7nf+IpcR+TiuHdgezf8Apv4aSdhdm1ahsqN3kqwA+Gs7DaI6PuVf/oPtGvr/AKOTPsasrEClUbvCMQfhN9PYtc/sX/tt5zqcR0l5KfiE64RzZfZ3E/uj/cg82mxPZrE/uwOrL6GdFiOjEh+vyeF/31PD0/ZSqRckA8r3m7CezmIQ3BpdCWP+M9jPsnoxM36zK9mUdLZb/aK+658xGL2DnWxcDkct7fGXc+x0YeDJZpp2tjy6+yfOqfctvUzcPZVONR/dlHpPRRLdOPgu/VZn+4oF9l6P3nPvX0E3D2cocmP9R9JcxJ0R8FX6jK/3MqRsCh9wnqz/AIzaNi0P3Y95Y+ZljEaY+CrzZH+5/chJsuiDcU0v/KJITDqNygdABNsRS8FHKT5Z9iIliBERAEREAREQBERAEREAREQBERAEREAREQBERAEREAREQBERAEREAREQBERAEREAREQBERAEREAREQBERAEREAREQBERAEREAREQBERAEREAREQBERAEREAREQBERAEREAREQD//2Q==;" vertex="1" parent="1">
                    <mxGeometry x="152.20000000000005" y="630" width="76.1" height="57" as="geometry"/>
                </mxCell>
                <mxCell id="247" value="" style="shape=image;verticalLabelPosition=bottom;labelBackgroundColor=#ffffff;verticalAlign=top;aspect=fixed;imageAspect=0;image=data:image/jpeg,/9j/4AAQSkZJRgABAQAAAQABAAD/2wCEAAoHCBYWFRgWFhYYGBgaHBgeGBwZGhoZGBkYHhgaIx8aHBwcIy4lHB8rIRgaJjgmKy80NTU1GiQ7QDszPy40NTEBDAwMEA8QHhISHjElJSw3NjQ2NDQ/NDQ0NDE0MTQ0NDs9NDcxNjU0MTQ9NDQ0NDQ0NjQ0NDQ9NDQ0NjQ0NDQ0NP/AABEIAMIBAwMBIgACEQEDEQH/xAAbAAEAAgMBAQAAAAAAAAAAAAAABAUCAwcGAf/EAD4QAAIBAgMFBQMJCAIDAAAAAAECAAMRBBIhBTFBUXEiYZGxwQaBoQcTFDJCUtHh8ENTYnKCksLxI9IVF7L/xAAZAQEAAwEBAAAAAAAAAAAAAAAAAQIDBAX/xAAuEQACAgEDAwMCBQUBAAAAAAAAAQIRAxIhMRNBUQRhoYGRFSIyQnEUI9Hh8AX/2gAMAwEAAhEDEQA/AOzREQBERAEREAREQBERAEREAREQBERAEREAREQBERAEREAREQBERAEREAREQBERAEREAREQBERAEREAREQBERAEREAREQBE1VqyqLsQo5k2nk9u+0xsUo3XgXOh/oHDqfDjAPVrXUsVDKWG8AgkdRwm6c99lMSUq2P2r+9vznQQYB9iIgCIiAIiIAiIgCIiAIiIAiIgCIiAIiIAiIgCIiAIiIAiIgCQ9pHsEcyvmD6SZK7azaKO8nwFv8oBXEQHI3EjpMQZ9vJBoxKZ/rG/eTrKjFbODHsmx7935S2d5HeqBvkAqmwr0XUm194sb7jOh4drqJ4JnNWpp3AdJ7jC1Boo5eVh6iCWSoiIIEREAREQBERAEREAREQBERAEREAREQBERAEREAREQBERAEqNqNdgOQ8/9CW889iHuzN/EfAGw+AgGDGfCZgzzB3kknxjKXH1sxyiS8bibDSQ8BQLteQSi12Lhbdrwl9hdGJ5eXH9dwkSimVbCS8M2sEFpEwp7pnBAiIgCIiAIiIAiIgCIiAIiIAiIgCIiAIiIAiJoxVdURnbcoLHoBwgG6Jyer8qVcHTDU/e7egtMX+VDEjdh6J6M5t75XUjV4JrlHWonJB8p+Jtf5ikP7j/AJTEfKfiT+yojvK1P+0akOjI67PM37IvvIHjPCf+z8WWsqYf+2p/3nt8JULojjiiMR1USydlZQlHkyCEgnlrI1R7ECWSGyse4yhep2j3SSqI+POZ8ol1s7DBFEqNmJnYueekvfnBaQSSi0zRpCWrfTj5zYlYQC5w73kiVOGrDnPJ7SxtelUdDUqkA9khibqdQdNd0rKWlWXx4nN0mdCvF5y5touf29QHvd/ImaW2nWX9ozdHb8ZTq+xuvRyfc6tmn2cmOKqG7k1Mv8NQ6edpjhdsVadQOjNp9l2LBhxB5yVk9if6OXZnW4lZsbai10DKCp+0p3qfUcj/AKlnLp2cbTTpn2IiSQIiIAiIgCIiAIiIAiIgHyc++VDbLIi4dCQX7VQjggOgvwubn+jvnu8RWVEZ2IVVBZidwAFyT0AnFdp7YFeq9ZmAzNoOKruVbdwA+MzySpHT6WGqd1aRXbMoU2N3ubfZ01/KWuJp02QquhtZdLCVFWohOlweBUcek2UHfNlZsn84I8NPOc+7PRnj1PU/saGwRBGbLa/A8OhmGIYfVCsw7hw5iW7bJuoOcluZ1U/hNlHFIhyugRhxABHXnrLKRRwi91u/Y8lTpvfQHQzq2zcYVoYZidcgVuVwB+M8iH/5P+IZg1rrY6nW9hv/AEZbByUykhMr/U4qbC4ty902hK2c/qsclFNL/J7WrVtSZuYnnjU0J4nsj1+EkVNoL8yEJAbTfpccN8iXC5WbRbdm9gCeJHP8praOJQl4ZbYJcqgSQzypTaK8MvvcCfX2i3D5vxzesWienPwyzU6za9zulKm1XJtmW/8ACt/UzYcVXHauco33UA285DlFdx05+GWlMuu4GR9voXVai2DL2WvxB3eB/wDqQvp9R75Wt4gSp2ph6tVSpfLuN81tQbgkW1sQJScotVZrjhkjJOmfcU7FdUTT7QkZKxClbAjvFyOhklsOgAu+vGxuL9JFyC+/T0nOmj2IpVRsobPZu1lOXutfwJEm/RqScXQ82BsetwVkukUtp86vQVCPiCJrxFYAaVmHc9O/+IlXJs55SlJ1uYJtZqLBlZH71Nm6Ea3E9lsLbqYhdOy4+sp32+8OY8vC/NgAzdrdfXKAD7hukr6Y9Mr829QAG4zKBlPdqZpCWkjL6WMlS58nWYE8/wCzvtCK4yPZag3jg3ev4S/nQmmrR5U4ShLTJbmUREkqIiIAiIgCIiAIiIB4D5UtsZKC4dD2qxu1uFNTr/c1h3gNOZ4PBs7WA6ngP1yl37a1TUx9cOSChVQLXAQKrKByBDX6sZTpTK/VYjpcH4GYTlbPc9Lj04VXL3LbC7Oembrkf+YFT7jrym+viHAOeldeNmDDylaj1P3j+J/GbPm2be7HqSfWZfyX6Em7lTMECs/YtTB33YgDwGkzXsPc5KnU51PxGvWS0ppky5FJse0c1/AMJqXCDn5Sbo1jDsyOR2rgZdbgAnTod8nULkXJJJOpJuT1JmK4Yd8k00tpGos4GJEZSZvVJsVRGsKNGIrOVWn2FS/3QNfvM2pmeIw6rbK6vzyhhY9SNZlkA/OTKmy3VM7IAumtxx3aA34wpNlWoxa3q/lmGzsUU7KUwzHjrcy1Q1j9lF6ksfhpKilRJIyg34Wvf4S0o0cSB9YD+bKfQmUk0Y5oRu7X1Ie0MCwUvde/KMvvmjDUaZHG/wDEdfAS0rHEAEnKQN9gp094lXScBsxUMeHDXnIttFoJyi1f2JP0ZPujwmioKa8ATyH60mw1nc5Rp3DQe8yVQwAH1iSfhK8cshx0/qZHwOOfRFC92Yn3DQSzajXPFB0Vj5mfadl3adND4za+OquctIAAaFmJOvU7/jF3wc81+a4pL+Skx2yKiguxB6KVJPcAN80U6TObVWqWG64ZhfoSLS9bYzMb1KhY9L+Z9JUY7DqjFVbMBv3aHlLxl2N8Uoz2u37Lgi/Q3VsynKAQVZmVW7jbNcHpPe+z2Peqh+cykrpmVgQ3eQPqnu8t08hSrUhTIyXqm4u2oUcwOfrPWeytDLQB4uWb0HwE2xcnP61f27kt7pMvYiJ0HkiIiAIiIAiIgCIiAcZ+UbC5NoMwFvnKdNyebDMh+FNfhM9hVsylTa4tYBbWHeRv89JefKjgS1TDOLAZaqsffTK/5zxuGzK+VHK34k5BpznLl5aPY9PU8Cj3PXhgBcmw4k6So2piEewQX11bdfuHObKOzc9i7l+Vjce4m/wk76FSUXKiw3kkzHgmDhCXLb9iuwNSiEOemXe+lmIFraXsevCRBx4dOHdM2K3JAIBJtfgJPxNSlkVaaEHezNv/AJRL3aOu9Mrpu/ggKJuRZ8yMBmynKTa/C/L4T4j84NLs3hZsRbTQWM3YRc7KuYLmNrncDwiiG6Vsk0MOzmyrmIF7C17e/rMmzAZTmAvqpuBfpMaiPRexNmGoIPxHdBdmYsbsTqTv/wBQ9jNNt3s0bcPXZSGXePf4y1pbVU/XBU+I/GR9m40ABG05Hh0PKWdQKR2gCO+1pmzmyyWqmvqQNp4tSllZTffrY27hxlEDNmMdcxyjs+Ph3TReaRWx14YKMdiz2fWH1bAbyTff3SxBnnb/AJyS+JLWUCw3WEpKNspPFqdol4rFX7Ke8jyEt9ikhLPoBu3aDl13yvwuGCDv4n0EkX8JVtcI58lSWlfcl4yo7rlpdm+9jpp3fq8r22OiIWdmYgcNBfgBxOstcJi0ZbroF3jXTfxtrumQp/OG50UbuZi2jCM5Q24XfyeOynlu3zpmEplUVTa4ABsLC9hw4Tz+LVbpSVR2nW4H3QQSfhPTidWDe2ZeszdRR2oyiInQcIiIgCIiAIiIAiIgHkflFo3wyvuyVFJPcwKW8XXwnNMRXRrWNyOW7851v2ywoqYKup3BQ/8AYyv/AIzlmGwqD7Pjr5zmzUpJno+iklHfsyTgtsZUysCSNBuAsBoLyclB61i5yJwUb+tj5mUTXV94uDwGnhLzZ+1Bls51FzfnrusB+rTJ+x2zhS1QW5OfCU0QkqDYcdST6SpSkx+qpbnYSajnENbVUXxJ/HylqAqIbCwAJleCiySxqnu38FHiNoM6IlgFXcAN+nH9cZtwr0xScNq7Wy6brW3Hhx8I2bgA/aYHKPifwmOJw1quReNrd15fVua3C9C2rcz2filRwzDMLMCNDvBHH9azSWFyVFhc2HIX0EmbQ2eEQMtzbRr9/GSsBg0akLjVrm/HefwjVsS8kUta77EOjhnqZiNSN5J1JP8AqS9mVCjlXuua2/gRu85ls8FHZDx3d9r2+F/CWr4dHFn05HdY9ZW7dGOXLTcWtn4FTCq+hW54HcfGU2KZqRamWzLbcdRYj4GbPprqpS+oPZYHgD8RIleoXbMxuTv8LSUi2LHJP826PlTB2pCoW3mwW3eeN+QM0YXCO7ZUFz7h5y7wuywQCzZl0KAGw77g+6Z4xTR7VMABiA1hutrpyB1llJcErPu4p2+3grsPsio1rjLqQb7xbjabMFhD87kNwRe5HcNPSekw1nAa/ZIveVNJx9JPfceC/lKtszWectSfZE2hgTYBmudbnytIQpmpmVToo1PNuCyxx9fIpPE6DrMNkU8tMHiST8dPKZ+5ipSUXJ/Q1U8CyJr3E68ZLTHqq9oWA48N3xM1YnFFnFNdde0eAm/E4dWWx3AGx5ab5Hcq3da+5jsJM9Rqrb9Qo5Dd6+c9LKX2fRcrFdRooPQX9RLkztwqonHndzfsZRETYxEREAREQBERAEREAi7QoZ6VRPvoy/3KR6ziuyvnHKhrAEb9DwvuvO5GcUeuqVqiZspSo68vquy6eEwzLh0dnpG90jRj6LK5DHNuANgOF93vmzDYZ2BZVJA32/Ws04yoGfMLG+8jUk98l4bHsqFFAFySTxsQBYeG+YnrRctCrkkYTHOlgNwvodL9bSTitoFwqDs3tm6+glfhaLOwRd53nkOJm3G0MjZcwbpvHWKDjDUvJ6HDVEsFRhp2R3nu5yJScPiCeCg2PQWPmZSJ3zcjEbjv06jlI0lVgq6fJ6XHEfNvf7p/L4yPszFKKS5juJXnvufWUwvbW8+osVsQsC0033LipiqbOpOawB3c76HpvM043EZ2NmJXTTXgOUwFOnkvnIe2osSLzVRQsQBa5NhFCMIrffbyb8Nhy5sLX62PuvLtdnJly2vv10zeIEj/APixYFXKt469RYz4uOdDldb8iOI8jKmM5yyfof04NdKs1Byj3KHUHkOY9RJW06qNSJDA3ItrxuPSQto4xXC5b3B4gbvHpIVoLxxXUnsyVgccyDLYEcL6WP4TOogWzCoGe97AaePGQ1ElthgFzB1J00GpkmkoxUr4v5McRXZzdvcOAklcewQINLC1+JHpIV59UypLhFpKuC12bWRFLMQCTu42HdM87VjYXVBv5t3SnaXFOowRVQC9u89TDOfLFR/MuX8HpNmUwtMACw187ekmTRg0KoqneFF+ttT43m+d8VSSPHk7bZ9iIliBERAEREAREQBERAPk5B7S4VPpuIUqDZwb7j26aPv6uZ1+Qa2yqDsWajTZm+sWRWJsANSRroAPdKTjqVGuLJ05ajh5IvYCw7zf4zYr94nbKey6C/Vo0h0RR5CSFoINyqOgAlOl7nf+IpcR+TiuHdgezf8Apv4aSdhdm1ahsqN3kqwA+Gs7DaI6PuVf/oPtGvr/AKOTPsasrEClUbvCMQfhN9PYtc/sX/tt5zqcR0l5KfiE64RzZfZ3E/uj/cg82mxPZrE/uwOrL6GdFiOjEh+vyeF/31PD0/ZSqRckA8r3m7CezmIQ3BpdCWP+M9jPsnoxM36zK9mUdLZb/aK+658xGL2DnWxcDkct7fGXc+x0YeDJZpp2tjy6+yfOqfctvUzcPZVONR/dlHpPRRLdOPgu/VZn+4oF9l6P3nPvX0E3D2cocmP9R9JcxJ0R8FX6jK/3MqRsCh9wnqz/AIzaNi0P3Y95Y+ZljEaY+CrzZH+5/chJsuiDcU0v/KJITDqNygdABNsRS8FHKT5Z9iIliBERAEREAREQBERAEREAREQBERAEREAREQBERAEREAREQBERAEREAREQBERAEREAREQBERAEREAREQBERAEREAREQBERAEREAREQBERAEREAREQBERAEREAREQBERAEREAREQD//2Q==;" vertex="1" parent="1">
                    <mxGeometry x="479" y="628.61" width="110" height="82.39" as="geometry"/>
                </mxCell>
                <mxCell id="248" value="" style="shape=image;verticalLabelPosition=bottom;labelBackgroundColor=#ffffff;verticalAlign=top;aspect=fixed;imageAspect=0;image=data:image/jpeg,/9j/4AAQSkZJRgABAQAAAQABAAD/2wCEAAkGBxISEhMTExIWFhASEBAQFhUSFxUSEhAVFRUWFhcSFRYYHCggGholGxUTITEjJSkrLi4uFx8zODMsNygtLisBCgoKDg0OGhANGjUlHiU1NTctKy8wNzMrODU3Ny4tMy8tNzc3NzctLisrKzctKys1NzY3LTctLTc1NzMvNzMvNP/AABEIAKgBLAMBIgACEQEDEQH/xAAcAAEAAQUBAQAAAAAAAAAAAAAABAIDBQcIAQb/xABJEAACAQIBBgkHBg4BBQAAAAAAAQIDEQQFEiExQVEGBxNhcYGRodEUIlJTkrHBFyMyk9LhFRZCQ1RiY3KCorLT4vA0JDOjwsP/xAAXAQEBAQEAAAAAAAAAAAAAAAAAAgED/8QAHxEBAQACAgEFAAAAAAAAAAAAAAECERIx0QNBkbHB/9oADAMBAAIRAxEAPwDeIAAAAAAAAAAAAAAAAAAAAAAAAAAAAAAAAAAAAAAAAAAAAAAAAAAAAAAAAAAAAAAAAPkeFvGDhMC3C7q4hfmqbXmv9pPVHo0vmNT5d448bNtQnToR9GlHlJ9DnK+noSA6GBynV4yMc3/y8R1Ssuy5b+UTG/peI9t+IHWAOTvlDxv6XifrH9oLjBxe3E4h9NSfwmB1iDlanwwxs456qV3HOzM51JWvrtpmerhZjPWVvrP8wOqAcsfjTjPWVvrP8jz8aMX6yt7f+QHVAOV/xnxfrK3tvxI1bhliIu0qlZPnl94HWIOSZcNK7/O1vba+JT+ONb1lf6yXiB1wDkV8MKvrK/1kvEvYbhziIO8a+Ij+7Ul7s4DrQHP3BzjgxUGlOccRD0aqVOp0RnFa+lSNv8FOGOFx6+ak41kryo1LKoudbJR5112A+iAAAAAAAAAAAAAAAAAAAAAAAANZ8bHD54RPDYeebXcU6tRa6EXqjH9d9yejS1b73L2U44XD1q8tVKnKdvSaXmx63ZdZyNwkyjOvVm5yzpym6k36U5aX1K4EPG5QlUbtdRbfTK+2TIditrvK4029SAtZozSSsHP0JdjPJ4drWmukCNmnuaXeSKo0QM9k/wD4b5sRD+lHkCrJ6/6Wa3V6f9J5EC4ipFCZ7cC5FmGy6r1OqPuMtnGMytG9Tqj7gMS4oZpelSdxGkwLOYeWJMqWgoVFgWLGYyJlypRqQefKMoSUoVE7TpvffcY2dF26ChxA6x4vOFyyhQefZYmlZVIrVJP6NWK3Oz0bGnzX+sOW+KzhFLC4qjJvzYzjRqbnRqNJ3/ddpfwo6kAAAAAAAAAAAAAAAAAAAAAAPg+OnEuGTs1fncTRpvoWdU/+aOYpO7ct7cu3SdN8deHcsnKS1UsVRm+hqdP31Ec7ZBwylXhF6oZ0nzuOr+awEjCZNhGzqpuVk1C9kr+lbTs1c59FkWVOTabjCKcVZThQ0O95XknnWstC06THY+Nm7kOnm3Wc3m7c22d1XJym5qVsuq+hxnk6nJRxrzU9HzU6n88WlLpSMXjMQruMZ8pT3yg4qX8MrlrEchbzOVv+vKDXdBEF9JmONndt+PBbv2U4ihF3cVa2tbOosqCJWdoLNBxtaTs7vxLYmYR/MVF+2pf0stqR6vNpzitOdKEl/DfxI3KgSc49zzGzryK6Vd7QJ0p6C3OnnVJcyh7izOpoJmC0zn0Q9wFh4ULCmQcRmgQJ4Y8p4YnziW0gLFTCrNk3qUW+xGOr4TNhFvXmr3GTqVFN8mvo6HN7ElpzellnLNZPQBByT/3OmEl8fgdhZGruph6E3rnQpTfTKCfxOQcjU3KolFXdmkltbtFLvOw8Bh+TpU6fq6cKfsxS+AF8AAAAAAAAAAAAAAAAAAAABjeEeSlisLXw70crSlBN/ky1xl1SUX1HLOGw0qOMcZxcZ/OwcXrjOL8+PSnFnXBqXjd4EylL8IYeF3GzxEIq8moq3LxW15uiS3Wexgayxiv/ALpMRWptbPcZSpUuQazAiaSpRZ62eOQFUqfOWqWFWnPUZX6dHcUzxFthZ8t6gJUacYXs3bXa+hEOU9PWeVMTFrn3tNlnP/WXsvxAykaUZK8dK5raOZrWixVkkmraW+xdXV37yDnPeux+Ic3zdjAvuRkMJWcc9pN3zNC6GYflHzd5JpY3NXOBkXjanqX2o88sqeqfaiH5eHjmBL8rqv8ANd6LdTlJfSait0dL7SI8fLZYtzxreu3uAm8uoK0dC9/OzHV62czybv8A7pMnwYyBWxleFGlBynN6I6lZa5zf5MFtfVtA+04luDbxGLhUlH5qg44ib2ea3yMOlyWd0RZ0gYPgdwbp5Pw0aMfOm/PqVLWdWo1pdti2JbEuszgAAAAAAAAAAAAAAAAAAAAAALGOxtOjTlVqzjTpQV5Tm1GMVztleIrRhGU5tKEIynJvVGMVdt9SObuMPhVVyjVbbccNTk+SpbF+0mts2uy9ltbCNw/y9k+ric7J9OpGMpPPbShRnJvRKlTfnRvd3vZcy0t/LTxqvZ6GY3E1dPm6ltPZ1FLXr37QJzxSLc8XuIHJrf3feeuVlZfewLspOT0lahDc30u3uI1Oq47n06S/5Y/Rj2O/vAu8lTe+PevEtTo21NNb1s6VsKo4yO2HZb3K3vLc1ZqUHoei23TsYF2hUgr50X1PxPK04v6MWlvbJEKWlaL6dW8TpaXo2vRu5iuN48hEcEleTsnq2yfQvEpU4vRGDk+dt90bHsaWc7ydne1tr2dSJFXEcks2MbEi06cla8FG+rS79jbJuGwcH9K+yyvZESjXdRrO1rUZSnB2AnZOjhaaanhY1Xe95VJrNVvo2TsZ7J+WcPCnKnCm8NnPOzqCjVU9FrSz1f8A3WjCU8t1FFQmoVIRSjGNaEamalsUvpLqZHr42MtVGnF74cr7pVGjln6OOff3+dKmdnSrEUaUpycaazXJtKUYJ2b2qKUV0JWR95xbcNcPk+nUVWh5lSonKtSinVjFvNjnrXOC0PRpV3odzXLqN9BLp1LQnfU4SXcdJNJdVZOx9LEU41aNSNSlNXjODvF/fzbCSc4cXnCipk+undvDVJJVqey2rlYrZNd6Vt1ujYSTSad00mmtTT2mioAAAAAAAAAAAAAAAAAAAABr/jQ4RKNOeBp6a1Wk51GvzcLpqP70rPRu6UaMrwun0M+mxOVXUyhVqzemrUqWvs855seqMUuosZbyPrnT+i9LitcedLauYDWbi07PWnYv0cM3tLuVqTjPStep7JW3Ml4OpGSvt2rd9wEfyQoeE6/ejIzmi3noDFYmlmtW1NXKKUTI1sJKelaEnZX1c9y9h8nQjrvJ9Oauz7wIEMM3s7SfhsIo877kS1Tgvye9lalH0V2vxAsqmHTJCqL0V2y8Q6i9FdsvErc46EGvg1LbZ70U2mlacFNb1a/YzIZ69FfzeIz16K/m8SRjY8infNcXz3XcyZGtHYVVqcZKzXZf4mIxWFlT0p3jvXua2AZOenaUKJCoYkkPEICQlzljFV7rMWuWjq2siV8ZsRdyZhZSee/o73te5bwM9SWo3zxc8JFVgsJPRWoUabg/W0klG/70XZPmae80dk+npR9FwRyi1lTDyg9HL0qGjap3py/qfYB0KAAAAAAAAAAAAAAAAAAAAA5v4xckyw2MrpaFysqsH+rN56XVnWImTuECmkm7TWteBt7jW4OutRWIhHOnRi1Uj6dLS87pi230SkaDx+TNN4PTueh9up9wGWyzTp1U3ZXevdLnfPz6z5WtgJxknT1xaa0rOVunWXZ168NEk7c6+JaeUXtiBa5OvKTbhJXd3aFlfbbRZdWgyWGoKOl/S7X9xB/CHMPwhzAZKUr9C1IpMd+EOYqWOb/JYE+57cg+Vy9B948qn6t9j8AJ1xcheUz9XLsfgPKKnq5dj8AJtxch+UVPVS7H4Dl6nqpdj8AJtw7amrp6GntIXL1fVS7JeBb8rn6IHtbJj1wlo3PQ117S0sn1t3bKC+Jd8qqeh3HvlNT0O5gV4bJaTvNqX6sb2638F2mWj3JW3JLctyMQq9Z6oPsbLkMFXqa7pc+juAn1cpW82npk9F9x97xQZCdXFwqNfN4dOq3sc7WjHted1HyeROD/AJyvpbaVo6W29h0NwMyEsHh1FpKpO0p22bodXvbAz4AAAAAAAAAAAAAAAAAAAAAzUHGFxdyg5YjCQzqTvKdKOmVLe4LbHmWldGrb4A5Nmmi22dHcJOAeCxjcpQdOs9dSlaLb3yWqXS1fnPgco8TldP5mvTmv2ilTl3KSfcBq23MuxA2B8kmP/ZfWP7J78keP30frH9kDXyK3UZ9/8keP30fbf2T1cUOP9Kh7cvsAa+5RjlGbD+R/Hesw/t1P7Z78j2O9Zh/bqf2wNd54zzYvyO431uG9ur/aPfkcxvrcN7dX+0BrnPGebKXE3i/X0O2o/wD0KvkaxPr6P/k+yBrPOPeUe9mzFxNYn9Io/wA/2SqPE1X24ml1Kb+AGsc972M57zaK4ma36VT9iXiVR4mau3FQ9iT+IGs6OkzGTMBOrOMIRcpydlGKu31Gzcl8UVCDTrYidTmhFUk+ZtuT9x9zkjImHwsc2hSjBbWtM5fvSel9bA+c4FcC1hrVayTr/kx1xpc99su5bN59mAAAAAAAAAAAAAAAAAAAAAAAAAAAAAAAAAAAAAAAAAAAAAAAAAAAAAAAAAAAAAAAAAAAAAAAAAAAAAAAAAAAAAAAAAAAAAAAAAAAAAAAAAAAAAAAAAB//9k=;" vertex="1" parent="1">
                    <mxGeometry x="1025" y="311" width="71.43" height="40" as="geometry"/>
                </mxCell>
                <mxCell id="250" value="" style="shape=image;verticalLabelPosition=bottom;labelBackgroundColor=#ffffff;verticalAlign=top;aspect=fixed;imageAspect=0;image=data:image/png,iVBORw0KGgoAAAANSUhEUgAAAOEAAADhCAMAAAAJbSJIAAAAjVBMVEX///8zNDMwMTAtLi0pKikmJybp6ek3ODcjJCP4+Pj8/PwSFBLy8vLg4OA+Pz4tLy1OT07Q0NDY2NgcHhx0dXRfYF+srKy+vr5HSEfm5uYXGRc8PTzGxsZeX15oaWiPj499fn1ERUS3t7eHh4ehoqGWl5ZwcHCpqalWV1aenp6BgoGUlJRNTk3LzMuzsrMxI+xJAAAIW0lEQVR4nO2dWXfiOBCF25L32IDNFhP2HQL5/z9vCJPusPiWPK1uXMyp7ykP1jm+kSVdVZXEjx+CIAiCIAiCIAiCIAiCIAiCIAiCIAiCgCh62e82PfaKP/kmf4mkFczGS/+/NyxWo1kw/o2GjyYbKKV1eJgco7hqmzgZLl49rZUK07/5bn+GrO18oty2t91/5L6fYKVRlPh+3pu2wrarzs3c51H4iXbDtrPtTDbzLM/TtChOck/4fpGmeZ5n/eVi3VLt8EvduckTKMy/FZ77UmnXC0M1a43G6850v1jsp511d3toqDD0XK2ca55P4YXSE+6Z0x9NdSvt36eC51VYDdX43yucPYHCoZXCZ/hKP0ILhY73BAp3no3C9m87vsexcK0U9ut+fzNrbaMw7FW2erUxslLo7fgrnJUu5VVxF1HdAoxYDUNHd/grfLFS2OyyV5jYKVQH9grzgZ3CIKlbgQkr03YiZK9wbmXaHGfAPhZlZ9qewbZN7FYLJ2Rv2zpWluakcFO3AhNdS4XepG4FJlpWpu1k26Z1KzBhZ0tPtm1ctwIDUcNSoWrVLcFA8WarMKhbgoHMVqHTrluCgX5gKdB5YW69e9YKudu2pa1A9rZtYjsM2du2vb1C5rbN1paebNt73RpoxtYK3X3dGkgiW+N9sm3rukWQFFt7hdu6RZDkW+uZRr3WLYLkeLBX2GAd1+/bbp4+FbIuGvqw3TydFL7ldaug2FjbUscJhnWroNjZC3SCed0qKCbGxSJ4M0pkbduMKe5gYf4nrOpWQRBNDQqb2/T4apiM1KJuGQS+KYl/evtkb3hGd+qWQZAajLdqZOYVhbUxzQ1lCrp7esg3uHPdZWxqjgZb6vU+n1oY+nDE2NQMDbOId34qoz9TtWVc+TWn3/3nCKO3WKrFOBb1Qfbgr5Kud3JNUa+MbVuP7hznK0dPl6CqGWPbtiRT3Lrzc5KkQ/9vfG1b/E4qDH/1zZ62Prs6RZAktC39PmlAl6RovvFEf0qNQ/194ici/xMuX2OarpvEi3u7X1mlmPSv7p6tqaFNm3uxCGyouiLdYVsXlVFlCqp1EX/JSYVjtgm2IxVp050Lu+lTUUfdZRuLGlJxKG95MboSaqustmxt25CcIi/zgnGP+EzVga1to+oSb/z0kerDGdckaUzNkHp9NX3k1KTENp4YrQjT5k6uFjmfSqXqXl0SDNCm7dpOR1QdqresSYEJyrSp15uxNSf60FsxNTX+GJs2PbpZ44bE2ulOmJqagjBtzfVNqVNORNzcPdNYVEoYlebtfoFa83WHqW1Lia17cDd5rAiFY6bRtpyYaGZ3NoWogLsbtFwgAkzqcPfd9XFslW08kYhN6NHd08RmUs2ONby+mZiwpc37fFJC7POZJropW6pLsp5Els3lqZCypbrES6/g01wrMCPCluqSBY5IcjA975x0oGlTquT5DE+mF2E5TiTYh6myarwEbxGZGlPqjadlDfB/xN3zVIjHVfmGbwq/6qu4HB8SvHdql87+K9iHusvSevvY0ryUdkmfGLcsrTdxiluXNkgJ28ZSIbaloLA5xgoDlpsLfPUOOjWJAxkeS4U4xe2BpC6uoOJ5NAif4kY2E7fgeREPDry0wbyBkxc8jSmOJSqwfmdwbrpKVLEB1rSpFvBg+B4Ud8LRekPTptfIZZZfLfipcMpRIRyGuENgtzfHDK13DD+5cIMGFUxA6S1DhT5UWO67P4E1VOqVoUJsS124fEMbxPKqIWhLVQNaMLxccLxqCEZLia1QARVyPLMObaleww27D1cYjsYUmkx3Ab+4BEb2OUZMoS0lQoMJXC5ChsUKcCsUfsA2Eex4j+HhJ1iA38QfHE51cKwxRRt21SDSLH00mXI8/BQghVS6M0N92Ow+7s0rkjhAIVlLmcP/C78z6wXoDKdJFVakKBOgnMe9ekUypJDMQRQwd8HvMqUhcifeOxGQwAV8/C5TmsPtOlWGh4v9+BnTJYzuUu4ElyjyM6bvcDkky2HhDpGfMUUHQw1F2330lfIzpmjKMBTeD1EtHD9jiuLBuksmyuB1L/yMKdrp4WDpGVj7xc6YRmhr4U7J+Dw8wa+5GdMCBXc1/bXBJZ/dLZ/w/ISij0vCJV+9PejNqwLv87gvDr4GFcOxu8cUXRClGjiGcWaJ+tBhVlKDrvMwnmHqlQt02P16F7ogSh0M/hJXKDKrE0YXRKmWoStgubdiZkzRvaXGNBm8DkUxM6YLaNoMDaGpUczuHUARb+MF5AUyNYrX9fMRsiZ6amgJA/vGlo8FHlsz9wTsfV7XRaVdpNA4mhagD5nFhPMRKhcyzogo/KFHrIqG8BVYxlVth7wCr3KMITx6aAyZ9UAcw+gVHsscGe/AGPZEtk0dWNWYfqBPLTCGrtENaMwuxNog62Xex+bgAzcEWh8N3OUdjE1TMEmpN1bGFO3US05W3pKgGJYpOvBQYMVBlZggMgusbmpN0PVkVeK6MJ7IyXrDmGCV2Dxqy+onBGBct0p+Bf0khiGW/FjgNrZKjgwaUzof8FgyZEur5Dl3SCGnK79gPLhKrhrFE1ld+QWzgFXqDfpAIasrv/poZzGo0PiIFLYYGdM5rJ6t0DhFrv32WqI6QfUGalahsQ8qvzhZ7xhVQFf6zZgY1baZIyAPI0HnJpqVfq4RTVOaj/WGac5qyXi01KCDmTXgo5hntYIKtH0K+Wwu4o0X6rKOqFYUU2ZqlXbDgNFcGmXLTssdtEPP1eriyN2g0mw4/R7FSmntemF74Gz3vZxVeWIcR5F/7L1Px62GCl++qHbGzp99PT7wgtl2vF/NMz+KGG0sBEEQBEEQBEEQBEEQBEEQBEEQhGr8A4Qsg8Dss+9FAAAAAElFTkSuQmCC;" vertex="1" parent="1">
                    <mxGeometry x="1118.6" y="194" width="74" height="74" as="geometry"/>
                </mxCell>
            </root>
        </mxGraphModel>
    </diagram>
</mxfile>